<svg width="7" height="8" viewBox="0 0 7 8" fill="none" xmlns="http://www.w3.org/2000/svg">
<path d="M3.66998 7.14996C5.45939 7.14996 6.90997 5.69931 6.90997 3.90991C6.90997 2.12051 5.45939 0.669922 3.66998 0.669922C1.88058 0.669922 0.429993 2.12051 0.429993 3.90991C0.429993 5.69931 1.88058 7.14996 3.66998 7.14996Z" fill="white"/>
<path d="M3.41998 2.21997L5.38 4.16998L3.41998 6.12" fill="#243980"/>
<path d="M4.21002 4.24994V4.0799C4.21002 3.70434 3.90558 3.3999 3.53003 3.3999H2.64001C2.26446 3.3999 1.96002 3.70434 1.96002 4.0799V4.24994C1.96002 4.62549 2.26446 4.92993 2.64001 4.92993H3.53003C3.90558 4.92993 4.21002 4.62549 4.21002 4.24994Z" fill="#243980"/>
</svg>
