<svg width="16" height="15" viewBox="0 0 16 15" fill="none" xmlns="http://www.w3.org/2000/svg">
<path d="M15.2 12.7701L9.46001 7.77007C9.36572 7.69829 9.26124 7.64106 9.15002 7.60015C9.63407 6.83724 9.89396 5.9536 9.90002 5.0501C9.90199 4.10386 9.6231 3.17827 9.09862 2.39068C8.57415 1.60308 7.82769 0.988811 6.95385 0.625785C6.08001 0.262759 5.11809 0.167252 4.18993 0.351371C3.26177 0.535489 2.40914 0.991112 1.74004 1.66021C1.07095 2.32931 0.615506 3.18176 0.431388 4.10992C0.247269 5.03808 0.342776 5.99999 0.705802 6.87383C1.06883 7.74767 1.68304 8.49414 2.47063 9.01861C3.25823 9.54308 4.18375 9.8221 5.13 9.82012C6.011 9.81772 6.87366 9.5683 7.61999 9.10015C7.68804 9.26874 7.79413 9.41926 7.92998 9.54009L13.67 14.5401C13.783 14.6559 13.9187 14.747 14.0686 14.8077C14.2185 14.8684 14.3794 14.8975 14.5411 14.8929C14.7028 14.8883 14.8618 14.85 15.008 14.7808C15.1543 14.7116 15.2845 14.6129 15.3907 14.4908C15.4968 14.3687 15.5765 14.226 15.6246 14.0716C15.6728 13.9172 15.6884 13.7543 15.6705 13.5936C15.6526 13.4328 15.6015 13.2775 15.5206 13.1375C15.4396 12.9975 15.3304 12.8758 15.2 12.7801V12.7701ZM5.13 9.32012C4.28745 9.32012 3.46385 9.0702 2.7633 8.6021C2.06274 8.13401 1.5167 7.46865 1.19427 6.69024C0.871837 5.91182 0.787523 5.05542 0.951896 4.22906C1.11627 3.4027 1.52196 2.64343 2.11773 2.04766C2.7135 1.45189 3.47258 1.04626 4.29894 0.881888C5.1253 0.717515 5.98183 0.801891 6.76025 1.12432C7.53866 1.44675 8.20395 1.99286 8.67205 2.69341C9.14014 3.39397 9.39001 4.21756 9.39001 5.06011C9.38737 6.18912 8.93773 7.27106 8.1394 8.06939C7.34106 8.86772 6.25901 9.31748 5.13 9.32012Z" fill="#D05216"/>
</svg>
