<svg width="8" height="8" viewBox="0 0 8 8" fill="none" xmlns="http://www.w3.org/2000/svg">
<path d="M3.80072 7.39005C5.59012 7.39005 7.04074 5.93943 7.04074 4.15002C7.04074 2.36062 5.59012 0.910034 3.80072 0.910034C2.01132 0.910034 0.56073 2.36062 0.56073 4.15002C0.56073 5.93943 2.01132 7.39005 3.80072 7.39005Z" fill="#253B80"/>
<path d="M5.76074 4.17004L3.81073 6.12003L1.85074 4.17004" fill="white"/>
<path d="M3.7207 4.93994H3.89075C4.2663 4.93994 4.57068 4.6355 4.57068 4.25995V3.36993C4.57068 2.99438 4.2663 2.68994 3.89075 2.68994H3.7207C3.34515 2.68994 3.04077 2.99438 3.04077 3.36993V4.25995C3.04077 4.6355 3.34515 4.93994 3.7207 4.93994Z" fill="white"/>
</svg>
