<svg width="27" height="28" viewBox="0 0 27 28" fill="none" xmlns="http://www.w3.org/2000/svg">
<path d="M14.1 0.889893H12.72C5.80537 0.889893 0.199951 6.49531 0.199951 13.4099V14.79C0.199951 21.7046 5.80537 27.3101 12.72 27.3101H14.1C21.0146 27.3101 26.62 21.7046 26.62 14.79V13.4099C26.62 6.49531 21.0146 0.889893 14.1 0.889893Z" fill="white"/>
<path d="M11.4 22.0801H14.61V14.03H16.85L17.0901 11.3301H14.61V9.80005C14.61 9.16005 14.74 8.90991 15.35 8.90991H17.0901V6.11011H14.87C12.47 6.11011 11.4 7.16993 11.4 9.17993V11.3301H9.71997V14.0601H11.4V22.0801Z" fill="#253B80"/>
</svg>
