<svg width="33" height="23" viewBox="0 0 33 23" fill="none" xmlns="http://www.w3.org/2000/svg">
<mask id="mask0_1_1242" style="mask-type:luminance" maskUnits="userSpaceOnUse" x="0" y="0" width="33" height="24">
<path d="M32.11 0.419922H0.47998V23.01H32.11V0.419922Z" fill="white"/>
</mask>
<g mask="url(#mask0_1_1242)">
<path d="M32.11 0.430054H0.480042V23.02H32.11V0.430054Z" fill="#FFCA2D"/>
<path d="M29.1 0.419922H3.48999C2.69434 0.419922 1.93126 0.736219 1.36865 1.29883C0.806043 1.86144 0.48999 2.62427 0.48999 3.41992V19.99C0.48999 20.7856 0.806043 21.5487 1.36865 22.1113C1.93126 22.6739 2.69434 22.99 3.48999 22.99H29.1C29.8956 22.99 30.6587 22.6739 31.2213 22.1113C31.7839 21.5487 32.1 20.7856 32.1 19.99V3.41992C32.1 2.62427 31.7839 1.86144 31.2213 1.29883C30.6587 0.736219 29.8956 0.419922 29.1 0.419922Z" fill="#FFCA2D"/>
<path fill-rule="evenodd" clip-rule="evenodd" d="M12.53 12.47H32.11V23.02H12.53V12.47Z" fill="#E83B3A"/>
<path fill-rule="evenodd" clip-rule="evenodd" d="M0.47998 0.419922H12.48V23.02H0.47998V0.419922Z" fill="#238F59"/>
</g>
</svg>
