<svg width="32" height="23" viewBox="0 0 32 23" fill="none" xmlns="http://www.w3.org/2000/svg">
<mask id="mask0_1_1258" style="mask-type:luminance" maskUnits="userSpaceOnUse" x="0" y="0" width="32" height="24">
<path d="M31.89 0.419922H0.26001V23.01H31.89V0.419922Z" fill="white"/>
</mask>
<g mask="url(#mask0_1_1258)">
<path d="M31.89 0.430054H0.26001V23.02H31.89V0.430054Z" fill="#FFCA2D"/>
<path d="M28.88 0.419922H3.28003C2.48438 0.419922 1.7213 0.736219 1.15869 1.29883C0.596082 1.86144 0.280029 2.62427 0.280029 3.41992V19.98C0.280029 20.7756 0.596082 21.5387 1.15869 22.1013C1.7213 22.6639 2.48438 22.98 3.28003 22.98H28.88C29.6757 22.98 30.4387 22.6639 31.0013 22.1013C31.564 21.5387 31.88 20.7756 31.88 19.98V3.41992C31.88 2.62427 31.564 1.86144 31.0013 1.29883C30.4387 0.736219 29.6757 0.419922 28.88 0.419922Z" fill="#FFCA2D"/>
<path fill-rule="evenodd" clip-rule="evenodd" d="M0.26001 12.47H31.9V23.02H0.26001V12.47Z" fill="#238F59"/>
<path fill-rule="evenodd" clip-rule="evenodd" d="M0.26001 0.419922H12.26V23.02H0.26001V0.419922Z" fill="#E83B3A"/>
<path fill-rule="evenodd" clip-rule="evenodd" d="M7.03003 13.6001L4.82007 14.77L5.23999 12.3L3.45007 10.55L5.93005 10.2L7.03003 7.94995L8.14001 10.2L10.61 10.5601L8.82007 12.3L9.23999 14.77L7.03003 13.6001Z" fill="#171617"/>
</g>
</svg>
