<svg width="32" height="23" viewBox="0 0 32 23" fill="none" xmlns="http://www.w3.org/2000/svg">
<mask id="mask0_1_1250" style="mask-type:luminance" maskUnits="userSpaceOnUse" x="0" y="0" width="32" height="24">
<path d="M31.73 0.419922H0.0999756V23.01H31.73V0.419922Z" fill="white"/>
</mask>
<g mask="url(#mask0_1_1250)">
<path d="M31.7301 0.430054H0.100098V23.02H31.7301V0.430054Z" fill="white"/>
<path fill-rule="evenodd" clip-rule="evenodd" d="M0.0999756 15.53H31.73V23.0601H0.0999756V15.53Z" fill="#16A74A"/>
<path fill-rule="evenodd" clip-rule="evenodd" d="M0.0999756 0.419922H31.73V7.95996H0.0999756V0.419922Z" fill="#F36D33"/>
<path d="M15.92 13.9799C16.367 13.9799 16.804 13.8474 17.1757 13.5991C17.5473 13.3507 17.837 12.9979 18.0081 12.5849C18.1791 12.172 18.2238 11.7174 18.1366 11.279C18.0494 10.8406 17.8341 10.4381 17.5181 10.122C17.202 9.80596 16.7994 9.59058 16.361 9.50337C15.9226 9.41617 15.4681 9.46098 15.0552 9.63204C14.6422 9.80309 14.2892 10.0927 14.0409 10.4643C13.7926 10.836 13.66 11.2729 13.66 11.7199C13.66 12.3193 13.8982 12.8942 14.322 13.3181C14.7459 13.7419 15.3207 13.9799 15.92 13.9799Z" fill="#F36D33"/>
</g>
</svg>
