<svg width="32" height="23" viewBox="0 0 32 23" fill="none" xmlns="http://www.w3.org/2000/svg">
<mask id="mask0_1_1267" style="mask-type:luminance" maskUnits="userSpaceOnUse" x="0" y="0" width="32" height="24">
<path d="M31.8401 0.419922H0.210083V23.01H31.8401V0.419922Z" fill="white"/>
</mask>
<g mask="url(#mask0_1_1267)">
<path d="M28.8301 0.419922H3.21997C2.42432 0.419922 1.66136 0.736219 1.09875 1.29883C0.536146 1.86144 0.219971 2.62427 0.219971 3.41992V19.98C0.219971 20.7756 0.536146 21.5387 1.09875 22.1013C1.66136 22.6639 2.42432 22.98 3.21997 22.98H28.8301C29.6257 22.98 30.3887 22.6639 30.9513 22.1013C31.5139 21.5387 31.8301 20.7756 31.8301 19.98V3.41992C31.8301 2.62427 31.5139 1.86144 30.9513 1.29883C30.3887 0.736219 29.6257 0.419922 28.8301 0.419922Z" fill="white"/>
<path fill-rule="evenodd" clip-rule="evenodd" d="M0.210083 0.419922H10.75V23.02H0.210083V0.419922Z" fill="#F36D33"/>
<path fill-rule="evenodd" clip-rule="evenodd" d="M21.3 0.419922H31.8401V23.02H21.3V0.419922Z" fill="#238F59"/>
</g>
</svg>
