<svg width="33" height="23" viewBox="0 0 33 23" fill="none" xmlns="http://www.w3.org/2000/svg">
<mask id="mask0_1_1234" style="mask-type:luminance" maskUnits="userSpaceOnUse" x="0" y="0" width="33" height="24">
<path d="M32.0601 0.419922H0.430054V23.01H32.0601V0.419922Z" fill="white"/>
</mask>
<g mask="url(#mask0_1_1234)">
<path d="M32.0601 0.430054H0.430054V23.02H32.0601V0.430054Z" fill="#E83B3A"/>
<path d="M29.03 0.419922H3.43005C2.6344 0.419922 1.87132 0.736219 1.30872 1.29883C0.746107 1.86144 0.430054 2.62427 0.430054 3.41992V19.99C0.430054 20.7856 0.746107 21.5487 1.30872 22.1113C1.87132 22.6739 2.6344 22.99 3.43005 22.99H29.03C29.8257 22.99 30.5888 22.6739 31.1514 22.1113C31.714 21.5487 32.03 20.7856 32.03 19.99V3.41992C32.03 2.62427 31.714 1.86144 31.1514 1.29883C30.5888 0.736219 29.8257 0.419922 29.03 0.419922Z" fill="#E83B3A"/>
<path fill-rule="evenodd" clip-rule="evenodd" d="M0.430054 12.47H32.03V23.02H0.430054V12.47Z" fill="#238F59"/>
<path fill-rule="evenodd" clip-rule="evenodd" d="M16.24 14.3601L13.14 15.99L13.73 12.54L11.23 10.0901L14.6901 9.59009L16.24 6.44995L17.79 9.59009L21.26 10.0901L18.75 12.54L19.3401 15.99L16.24 14.3601Z" fill="#FFCA2D"/>
</g>
</svg>
