<svg width="32" height="23" viewBox="0 0 32 23" fill="none" xmlns="http://www.w3.org/2000/svg">
<mask id="mask0_1_1297" style="mask-type:luminance" maskUnits="userSpaceOnUse" x="0" y="0" width="32" height="24">
<path d="M31.9501 0.419922H0.320068V23.01H31.9501V0.419922Z" fill="white"/>
</mask>
<g mask="url(#mask0_1_1297)">
<path d="M28.9401 0.419922H3.33008C2.53443 0.419922 1.77135 0.736219 1.20874 1.29883C0.646131 1.86144 0.330078 2.62427 0.330078 3.41992V19.98C0.330078 20.7756 0.646131 21.5387 1.20874 22.1013C1.77135 22.6639 2.53443 22.98 3.33008 22.98H28.9401C29.7357 22.98 30.4988 22.6639 31.0614 22.1013C31.624 21.5387 31.9401 20.7756 31.9401 19.98V3.41992C31.9401 2.62427 31.624 1.86144 31.0614 1.29883C30.4988 0.736219 29.7357 0.419922 28.9401 0.419922Z" fill="#FFCA2D"/>
<path fill-rule="evenodd" clip-rule="evenodd" d="M0.320068 0.419922H10.86V23.02H0.320068V0.419922Z" fill="#E83B3A"/>
<path fill-rule="evenodd" clip-rule="evenodd" d="M21.41 0.419922H31.9501V23.02H21.41V0.419922Z" fill="#238F59"/>
</g>
</svg>
