<svg width="41" height="17" viewBox="0 0 41 17" fill="none" xmlns="http://www.w3.org/2000/svg">
<mask id="mask0_937_1340" style="mask-type:luminance" maskUnits="userSpaceOnUse" x="0" y="0" width="41" height="17">
<path d="M40.181 0.170013H0.710938V16.95H40.181V0.170013Z" fill="white"/>
</mask>
<g mask="url(#mask0_937_1340)">
<path d="M2.5 10.41V1.41L3.41003 1.35999H3.91003C4.02954 1.35999 4.14789 1.38353 4.2583 1.42926C4.36871 1.47499 4.46897 1.54202 4.55347 1.62653C4.63797 1.71103 4.705 1.81135 4.75073 1.92175C4.79646 2.03216 4.81995 2.15049 4.81995 2.26999V10.42C4.81995 10.6614 4.72412 10.8928 4.55347 11.0635C4.38281 11.2341 4.15138 11.33 3.91003 11.33H2.5V10.41Z" fill="#253B80"/>
<path d="M10.2207 1.35001H9.80078C9.544 1.34969 9.29688 1.44815 9.11072 1.625C8.92455 1.80186 8.81362 2.04353 8.80078 2.29999V10.37C8.80078 10.6352 8.90609 10.8896 9.09363 11.0771C9.28116 11.2647 9.53556 11.37 9.80078 11.37H10.2207C10.4859 11.37 10.7403 11.2647 10.9279 11.0771C11.1154 10.8896 11.2207 10.6352 11.2207 10.37V1.37L10.2207 1.35001Z" fill="#253B80"/>
<path d="M31.219 1.59L31.619 1.75C31.8622 1.84424 32.059 2.02977 32.1674 2.26703C32.2757 2.50428 32.287 2.77447 32.199 3.01999L29.369 10.85C29.2729 11.0867 29.0899 11.2776 28.8574 11.3836C28.625 11.4896 28.3608 11.5027 28.119 11.42L27.709 11.27C27.4658 11.1758 27.269 10.9902 27.1606 10.753C27.0523 10.5157 27.041 10.2455 27.129 10L30.2991 1.25L31.219 1.59Z" fill="#0B5383"/>
<path d="M31.1199 1.59L31.5499 1.43C31.8068 1.33738 32.0891 1.34456 32.3409 1.45011C32.5928 1.55566 32.7958 1.75191 32.9099 2L36.3699 9.93C36.4663 10.1729 36.4638 10.444 36.3629 10.6851C36.262 10.9262 36.0706 11.1182 35.8298 11.22L35.3999 11.38C35.1432 11.475 34.8599 11.469 34.6074 11.3632C34.355 11.2574 34.1522 11.0597 34.0399 10.81L30.1699 1.96L31.1199 1.59Z" fill="#0B5383"/>
<path d="M14.7109 11.32H15.1909C15.5225 11.3148 15.839 11.1801 16.0726 10.9446C16.3062 10.7092 16.4383 10.3917 16.4409 10.06V1.35001H14.7109C14.3794 1.35001 14.0616 1.48171 13.8271 1.71613C13.5927 1.95055 13.4609 2.26849 13.4609 2.60001V11.31L14.7109 11.32Z" fill="#253B80"/>
<path d="M22.2699 11.32H22.5599C22.9162 11.3174 23.257 11.174 23.5081 10.9211C23.7591 10.6682 23.8999 10.3263 23.8999 9.97V2.70001C23.8999 2.3437 23.7591 2.00182 23.5081 1.74893C23.257 1.49604 22.9162 1.35265 22.5599 1.35001H22.2699C21.9127 1.35262 21.5707 1.49568 21.3181 1.74829C21.0655 2.0009 20.9225 2.34278 20.9199 2.70001V11.32H22.2699Z" fill="#0B5383"/>
<path d="M18.0398 1.35001H26.0398C26.2281 1.35001 26.4086 1.4248 26.5417 1.55795C26.6749 1.6911 26.7498 1.87169 26.7498 2.06V2.53C26.7511 2.62408 26.7337 2.71748 26.6986 2.80478C26.6635 2.89208 26.6115 2.97152 26.5454 3.03851C26.4793 3.10551 26.4006 3.1587 26.3138 3.19501C26.227 3.23131 26.1339 3.25001 26.0398 3.25H18.7297C18.5388 3.25 18.3556 3.17415 18.2206 3.03912C18.0856 2.9041 18.0098 2.72095 18.0098 2.53V2.07999" fill="#0B5383"/>
<path d="M30.3008 1.26001L32.0908 1.38001L32.8708 3.12001L30.3008 3.31001V1.26001Z" fill="#0B5383"/>
<path d="M33.8509 7.33002H28.8809V8.91002H33.8509V7.33002Z" fill="#0B5383"/>
<path d="M4.63922 5.54999L9.01923 10.91L9.79922 11.16L9.03922 7.07999L4.46922 1.35999L2.94922 1.37999L3.63922 5.54999H4.63922Z" fill="#253B80"/>
<mask id="mask1_937_1340" style="mask-type:luminance" maskUnits="userSpaceOnUse" x="13" y="-8" width="30" height="22">
<path d="M42.08 3.03C42.08 8.64 35.67 13.19 27.77 13.19C19.87 13.19 13.5 8.64 13.5 3.03C13.5 -2.58 19.9001 -7.13 27.8101 -7.13C35.7201 -7.13 42.08 -2.58 42.08 3.03Z" fill="white"/>
</mask>
<g mask="url(#mask1_937_1340)">
<path d="M31.219 1.59L31.619 1.75C31.8622 1.84424 32.059 2.02977 32.1674 2.26703C32.2757 2.50428 32.287 2.77447 32.199 3.01999L29.369 10.85C29.2729 11.0867 29.0899 11.2776 28.8574 11.3836C28.625 11.4896 28.3608 11.5027 28.119 11.42L27.709 11.27C27.4658 11.1758 27.269 10.9902 27.1606 10.753C27.0523 10.5157 27.041 10.2455 27.129 10L30.2991 1.25L31.219 1.59Z" fill="#D05427"/>
<path d="M31.1199 1.59L31.5499 1.43C31.8068 1.33738 32.0891 1.34456 32.3409 1.45011C32.5928 1.55566 32.7958 1.75191 32.9099 2L36.3699 9.93C36.4663 10.1729 36.4638 10.444 36.3629 10.6851C36.262 10.9262 36.0706 11.1182 35.8298 11.22L35.3999 11.38C35.1432 11.475 34.8599 11.469 34.6074 11.3632C34.355 11.2574 34.1522 11.0597 34.0399 10.81L30.1699 1.96L31.1199 1.59Z" fill="#D05427"/>
<path d="M14.7109 11.32H15.1909C15.5225 11.3148 15.839 11.1801 16.0726 10.9446C16.3062 10.7092 16.4383 10.3917 16.4409 10.06V1.35001H14.7109C14.3794 1.35001 14.0616 1.48171 13.8271 1.71613C13.5927 1.95055 13.4609 2.26849 13.4609 2.60001V11.31L14.7109 11.32Z" fill="#D05427"/>
<path d="M22.2699 11.32H22.5599C22.9162 11.3174 23.257 11.174 23.5081 10.9211C23.7591 10.6682 23.8999 10.3263 23.8999 9.97V2.70001C23.8999 2.3437 23.7591 2.00182 23.5081 1.74893C23.257 1.49604 22.9162 1.35265 22.5599 1.35001H22.2699C21.9127 1.35262 21.5707 1.49568 21.3181 1.74829C21.0655 2.0009 20.9225 2.34278 20.9199 2.70001V11.32H22.2699Z" fill="#D05427"/>
<path d="M18.0398 1.35001H26.0398C26.2281 1.35001 26.4086 1.4248 26.5417 1.55795C26.6749 1.6911 26.7498 1.87169 26.7498 2.06V2.53C26.7511 2.62408 26.7337 2.71748 26.6986 2.80478C26.6635 2.89208 26.6115 2.97152 26.5454 3.03851C26.4793 3.10551 26.4006 3.1587 26.3138 3.19501C26.227 3.23131 26.1339 3.25001 26.0398 3.25H18.7297C18.5388 3.25 18.3556 3.17415 18.2206 3.03912C18.0856 2.9041 18.0098 2.72095 18.0098 2.53V2.07999" fill="#D05427"/>
<path d="M30.3008 1.26001L32.0908 1.38001L32.8708 3.12001L30.3008 3.31001V1.26001Z" fill="#D05427"/>
<path d="M33.8509 7.33002H28.8809V8.91002H33.8509V7.33002Z" fill="#D05427"/>
</g>
<path d="M16.1602 9.53L16.2601 9.13C17.6911 10.5132 19.4206 11.5493 21.3153 12.1586C23.21 12.7679 25.2192 12.934 27.1882 12.6441C29.1572 12.3543 31.0334 11.6162 32.6721 10.4868C34.3109 9.35745 35.6684 7.86688 36.6401 6.13L38.0801 5.13C38.0801 5.29 37.9901 5.44001 37.9401 5.60001C36.4201 10.1 31.6101 13.39 25.9401 13.39C24.168 13.4136 22.4088 13.0856 20.7644 12.4247C19.12 11.7639 17.623 10.7834 16.3601 9.54001L16.1602 9.53Z" fill="#253B80"/>
<path d="M3.57996 14.53V16.16H3.15002V14.53H2.5V14.2H4.26001V14.53H3.57996Z" fill="#253B80"/>
<path d="M4.5 16.14V14.14H5.62C5.81926 14.1171 6.02031 14.163 6.18994 14.27C6.25063 14.3268 6.29687 14.3973 6.32471 14.4756C6.35255 14.5539 6.3612 14.6377 6.34998 14.72C6.36243 14.8583 6.33469 14.9972 6.27002 15.12C6.23078 15.1668 6.18185 15.2044 6.12659 15.2303C6.07132 15.2562 6.01099 15.2698 5.94995 15.27C6.00062 15.2651 6.05181 15.2717 6.09961 15.2892C6.14741 15.3068 6.19068 15.3348 6.2262 15.3713C6.26171 15.4077 6.28857 15.4517 6.30481 15.5C6.32105 15.5482 6.32617 15.5995 6.31995 15.65V16.08H5.89001V15.72C5.89001 15.52 5.78005 15.42 5.55005 15.42H4.93005V16.08L4.5 16.14ZM4.93005 15.14H5.55005C5.65175 15.1488 5.75347 15.1242 5.83997 15.07C5.89668 14.9921 5.92177 14.8956 5.91003 14.8C5.92191 14.7058 5.90065 14.6103 5.84998 14.53C5.77129 14.475 5.67544 14.4502 5.57996 14.46H4.93005V15.14Z" fill="#253B80"/>
<path d="M8.03003 15.76H7.03003L6.89001 16.14H6.5L7.25 14.14H7.89001L8.66003 16.14H8.20996L8.03003 15.76ZM7.93005 15.49L7.54004 14.49L7.15002 15.49H7.93005Z" fill="#253B80"/>
<path d="M10.9105 14.18V16.18H10.1805L9.54053 15.1L9.3905 14.82L9.31055 14.68L9.24048 14.54V16.18H8.81055V14.18H9.54053L10.1305 15.18L10.3105 15.5L10.3905 15.66L10.4805 15.82V14.19L10.9105 14.18Z" fill="#253B80"/>
<path d="M12.99 14.75H12.5699C12.5699 14.64 12.57 14.57 12.49 14.55C12.3852 14.5084 12.2724 14.4913 12.16 14.5C12.0247 14.4916 11.889 14.5086 11.76 14.55C11.7 14.55 11.67 14.62 11.67 14.76C11.67 14.88 11.67 14.95 11.75 14.98C11.9143 15.0162 12.0817 15.0363 12.25 15.04C12.4732 15.0255 12.6966 15.0667 12.9 15.16C12.9571 15.2126 13.0006 15.2784 13.0267 15.3515C13.0528 15.4247 13.0609 15.5031 13.05 15.58C13.05 15.84 12.99 16.01 12.88 16.08C12.6358 16.1779 12.3717 16.2156 12.11 16.19C11.8678 16.2143 11.6234 16.1765 11.4 16.08C11.3361 16.0253 11.287 15.9554 11.2573 15.8768C11.2276 15.7981 11.2182 15.7132 11.23 15.63V15.53H11.64C11.64 15.67 11.64 15.75 11.73 15.78C11.8754 15.8253 12.0282 15.8423 12.18 15.83C12.3065 15.8421 12.4339 15.8214 12.55 15.77C12.55 15.77 12.63 15.66 12.63 15.53C12.63 15.4 12.6299 15.37 12.5699 15.34C12.4859 15.2989 12.3935 15.2783 12.3 15.28H12.0699C11.8331 15.2886 11.5974 15.2442 11.38 15.15C11.322 15.0958 11.2781 15.0284 11.2519 14.9535C11.2258 14.8786 11.2183 14.7985 11.23 14.72C11.2185 14.6343 11.2291 14.5472 11.2606 14.4668C11.2921 14.3863 11.3435 14.3151 11.41 14.26C11.637 14.1635 11.8845 14.1257 12.13 14.15C12.3646 14.1305 12.6005 14.1647 12.8199 14.25C12.8839 14.296 12.9344 14.3583 12.966 14.4304C12.9977 14.5025 13.0094 14.5818 13 14.66L12.99 14.75Z" fill="#253B80"/>
<path d="M13.7699 14.53V15.06H14.7699V15.37H13.7699V16.18H13.3398V14.18H14.8398V14.53H13.7699Z" fill="#253B80"/>
<path d="M15.5004 14.53V15.04H16.5004V15.31H15.5004V15.87H16.6304V16.18H15.0703V14.18H16.6204V14.53H15.5004Z" fill="#253B80"/>
<path d="M16.9297 16.14V14.14H18.0397C18.242 14.1194 18.4454 14.165 18.6196 14.27C18.6766 14.329 18.7197 14.4001 18.7456 14.478C18.7716 14.5559 18.7798 14.6385 18.7697 14.72C18.7866 14.8585 18.7585 14.9987 18.6896 15.12C18.6503 15.1667 18.6014 15.2044 18.5461 15.2303C18.4909 15.2562 18.4307 15.2697 18.3696 15.27C18.4207 15.2654 18.4722 15.2721 18.5204 15.2895C18.5686 15.307 18.6123 15.3348 18.6486 15.3711C18.6848 15.4073 18.7126 15.4511 18.7301 15.4993C18.7476 15.5475 18.7542 15.5989 18.7496 15.65V16.08H18.3196V15.72C18.3196 15.52 18.1996 15.42 17.9796 15.42H17.3596V16.08L16.9297 16.14ZM17.3596 15.14H17.9696C18.0745 15.1488 18.1795 15.1243 18.2697 15.07C18.3217 14.99 18.3462 14.8952 18.3396 14.8C18.3515 14.7057 18.3303 14.6103 18.2797 14.53C18.1965 14.4765 18.0981 14.4519 17.9996 14.46H17.3596V15.14Z" fill="#253B80"/>
<path d="M20.0197 14.53V16.16H19.5896V14.53H18.9297V14.2H20.6896V14.53H20.0197Z" fill="#253B80"/>
<path d="M21.7598 16.14V14.14H22.8698C23.1041 14.1205 23.3378 14.1843 23.5298 14.32C23.6027 14.4065 23.6571 14.507 23.6898 14.6154C23.7225 14.7237 23.7327 14.8376 23.7197 14.95C23.7521 15.2711 23.7004 15.595 23.5697 15.89C23.4697 16.03 23.2398 16.1 22.8798 16.1L21.7598 16.14ZM22.1798 15.83H22.7998C22.8704 15.8386 22.942 15.8314 23.0094 15.8089C23.0768 15.7864 23.1384 15.7492 23.1897 15.7C23.2693 15.5319 23.3006 15.3449 23.2798 15.16C23.3011 14.9729 23.2735 14.7833 23.1997 14.61C23.1997 14.53 23.0197 14.49 22.8197 14.49H22.1798V15.83Z" fill="#253B80"/>
<path d="M24.41 14.18V14.53C24.4164 14.5766 24.412 14.624 24.3973 14.6686C24.3826 14.7133 24.358 14.754 24.3252 14.7878C24.2924 14.8215 24.2525 14.8473 24.2083 14.8633C24.164 14.8793 24.1167 14.885 24.0699 14.88H24V14.73C24.12 14.73 24.1801 14.73 24.1801 14.6V14.53H24.03V14.18H24.41Z" fill="#253B80"/>
<path d="M26.1605 15.76H25.1605L25.0105 16.14H24.5605L25.3105 14.14H25.9604L26.7205 16.14H26.2705L26.1605 15.76ZM26.0605 15.49L25.6705 14.49L25.2905 15.49H26.0605Z" fill="#253B80"/>
<path d="M26.9492 16.14V14.14H28.0593C28.2586 14.1171 28.4596 14.163 28.6293 14.27C28.69 14.3268 28.7362 14.3973 28.764 14.4756C28.7919 14.5539 28.8005 14.6377 28.7893 14.72C28.8018 14.8583 28.7739 14.9972 28.7092 15.12C28.67 15.1668 28.6211 15.2044 28.5658 15.2303C28.5105 15.2562 28.4503 15.2698 28.3893 15.27C28.4403 15.2654 28.4917 15.2721 28.5399 15.2896C28.5881 15.307 28.632 15.3349 28.6682 15.3711C28.7045 15.4074 28.7323 15.4511 28.7498 15.4993C28.7672 15.5475 28.7739 15.599 28.7693 15.65V16.08H28.3392V15.72C28.3392 15.52 28.2193 15.42 27.9893 15.42H27.3693V16.08L26.9492 16.14ZM27.3693 15.14H27.9893C28.091 15.1488 28.1928 15.1242 28.2793 15.07C28.336 14.9921 28.361 14.8956 28.3492 14.8C28.3611 14.7058 28.34 14.6103 28.2893 14.53C28.2106 14.475 28.1148 14.4502 28.0193 14.46H27.3693V15.14Z" fill="#253B80"/>
<path d="M30.0208 15.1H31.0208V15.53C31.0208 15.81 30.9607 15.99 30.8407 16.07C30.5772 16.1741 30.293 16.2151 30.0108 16.19C29.7435 16.2224 29.473 16.1662 29.2407 16.03C29.1649 15.9392 29.1088 15.8337 29.0761 15.72C29.0433 15.6064 29.0348 15.4872 29.0508 15.37C29.0329 15.0947 29.0564 14.8183 29.1207 14.55C29.1486 14.4879 29.1886 14.432 29.2384 14.3857C29.2882 14.3393 29.3469 14.3034 29.4108 14.28C29.6221 14.2212 29.8418 14.1975 30.0608 14.21C30.3259 14.1835 30.5933 14.2213 30.8407 14.32C30.9607 14.39 31.0208 14.55 31.0208 14.81H30.5807C30.5807 14.6833 30.5507 14.6033 30.4907 14.57C30.3518 14.5267 30.206 14.5098 30.0608 14.52C29.8967 14.5067 29.7317 14.5342 29.5807 14.6C29.5008 14.7096 29.4652 14.8453 29.4807 14.98V15.43C29.4711 15.4952 29.475 15.5618 29.4922 15.6254C29.5094 15.6891 29.5395 15.7485 29.5807 15.8C29.7232 15.8701 29.883 15.8979 30.0408 15.88C30.1909 15.8923 30.3418 15.8682 30.4807 15.81C30.5507 15.76 30.5807 15.66 30.5807 15.49V15.41H30.0108L30.0208 15.1Z" fill="#253B80"/>
<path d="M31.7092 14.53V15.04H32.7693V15.31H31.7092V15.87H32.8392V16.18H31.2793V14.18H32.8292V14.53H31.7092Z" fill="#253B80"/>
<path d="M35.2506 14.18V16.18H34.5006L33.8506 15.1L33.7006 14.82L33.6306 14.68L33.5607 14.54V16.18H33.1406V14.18H33.8606L34.4506 15.18L34.6306 15.5L34.7206 15.66L34.8007 15.82V14.19L35.2506 14.18Z" fill="#253B80"/>
<path d="M36.55 14.53V16.16H36.12V14.53H35.5V14.2H37.26V14.53H36.55Z" fill="#253B80"/>
<path d="M38.7497 5.04999L35.7497 5.86999C35.6466 5.89877 35.5388 5.90683 35.4326 5.89371C35.3263 5.88058 35.2238 5.84652 35.1308 5.79352C35.0378 5.74052 34.9564 5.66961 34.8909 5.5849C34.8255 5.50019 34.7775 5.40335 34.7497 5.29999C34.7194 5.19756 34.7099 5.09011 34.7218 4.98395C34.7336 4.87778 34.7666 4.77506 34.8188 4.68185C34.871 4.58865 34.9413 4.50684 35.0256 4.44125C35.1099 4.37567 35.2066 4.32763 35.3098 4.29999L38.3098 3.48001C38.4122 3.44966 38.5196 3.44014 38.6258 3.452C38.732 3.46385 38.8346 3.49685 38.9278 3.54904C39.021 3.60124 39.1028 3.67157 39.1684 3.75589C39.234 3.84021 39.2821 3.93682 39.3098 4.04001C39.3685 4.24818 39.3425 4.47114 39.2376 4.66031C39.1327 4.84948 38.9574 4.98953 38.7497 5.04999Z" fill="#253B80"/>
<path d="M38.1204 6.85L37.7705 4.47C37.7549 4.36554 37.7601 4.25902 37.786 4.15662C37.8118 4.05421 37.8576 3.95795 37.9208 3.87335C37.9841 3.78875 38.0635 3.71751 38.1544 3.66373C38.2453 3.60994 38.3458 3.57469 38.4504 3.56C38.5543 3.54299 38.6605 3.54693 38.7629 3.57156C38.8652 3.5962 38.9617 3.64104 39.0465 3.70346C39.1312 3.76588 39.2027 3.8446 39.2567 3.93503C39.3106 4.02545 39.3458 4.12575 39.3604 4.23001L39.7104 6.61999C39.7391 6.83055 39.6839 7.04394 39.5567 7.21417C39.4295 7.3844 39.2405 7.49784 39.0305 7.53C38.8199 7.55868 38.6065 7.50345 38.4362 7.37625C38.266 7.24905 38.1526 7.06006 38.1204 6.85Z" fill="#253B80"/>
</g>
</svg>
