<svg width="7" height="8" viewBox="0 0 7 8" fill="none" xmlns="http://www.w3.org/2000/svg">
<path d="M8.09966 0.97998H-0.610352V7.19998H8.09966V0.97998Z" fill="white"/>
<path fill-rule="evenodd" clip-rule="evenodd" d="M-0.610352 5.12988H8.09966V7.19989H-0.610352V5.12988Z" fill="#00A631"/>
<path fill-rule="evenodd" clip-rule="evenodd" d="M-0.610352 1H8.09966V3.07001H-0.610352V1Z" fill="#FF6C2D"/>
<path d="M3.74989 4.70996C3.91432 4.70996 4.07202 4.64465 4.18829 4.52838C4.30457 4.41211 4.36989 4.2544 4.36989 4.08997C4.36989 3.92553 4.30457 3.76782 4.18829 3.65155C4.07202 3.53528 3.91432 3.46997 3.74989 3.46997C3.58545 3.46997 3.42775 3.53528 3.31148 3.65155C3.19521 3.76782 3.12988 3.92553 3.12988 4.08997C3.12988 4.2544 3.19521 4.41211 3.31148 4.52838C3.42775 4.64465 3.58545 4.70996 3.74989 4.70996Z" fill="#FF6C2D"/>
</svg>
