<svg width="7" height="7" viewBox="0 0 7 7" fill="none" xmlns="http://www.w3.org/2000/svg">
<mask id="mask0_39_1722" style="mask-type:luminance" maskUnits="userSpaceOnUse" x="0" y="0" width="7" height="7">
<path d="M3.74965 6.95001C5.46725 6.95001 6.85965 5.55763 6.85965 3.84003C6.85965 2.12242 5.46725 0.72998 3.74965 0.72998C2.03204 0.72998 0.639648 2.12242 0.639648 3.84003C0.639648 5.55763 2.03204 6.95001 3.74965 6.95001Z" fill="white"/>
</mask>
<g mask="url(#mask0_39_1722)">
<mask id="mask1_39_1722" style="mask-type:luminance" maskUnits="userSpaceOnUse" x="-1" y="0" width="10" height="7">
<path d="M8.09966 0.72998H-0.610352V6.95001H8.09966V0.72998Z" fill="white"/>
</mask>
<g mask="url(#mask1_39_1722)">
<path d="M7.26965 0.72998H0.21965C-0.0004794 0.72998 -0.211593 0.817428 -0.367249 0.973083C-0.522904 1.12874 -0.610352 1.33987 -0.610352 1.56V6.12C-0.610352 6.22899 -0.588884 6.33692 -0.547173 6.43762C-0.505461 6.53832 -0.444321 6.62984 -0.367249 6.70691C-0.290176 6.78398 -0.198677 6.84513 -0.0979767 6.88684C0.00272357 6.92855 0.110653 6.95001 0.21965 6.95001H7.26965C7.37865 6.95001 7.48658 6.92855 7.58728 6.88684C7.68798 6.84513 7.77948 6.78398 7.85655 6.70691C7.93363 6.62984 7.99476 6.53832 8.03647 6.43762C8.07818 6.33692 8.09966 6.22899 8.09966 6.12V1.56C8.09966 1.33987 8.01221 1.12874 7.85655 0.973083C7.7009 0.817428 7.48978 0.72998 7.26965 0.72998Z" fill="white"/>
<path fill-rule="evenodd" clip-rule="evenodd" d="M-0.610352 0.72998H2.29965V7H-0.610352V0.72998Z" fill="#FF6C2D"/>
<path fill-rule="evenodd" clip-rule="evenodd" d="M5.19922 0.72998H8.09923V7H5.19922V0.72998Z" fill="#248E58"/>
</g>
</g>
</svg>
