<svg width="27" height="27" viewBox="0 0 27 27" fill="none" xmlns="http://www.w3.org/2000/svg">
<path d="M13.7001 26.4099C11.9658 26.4112 10.2482 26.0707 8.64551 25.408C7.04286 24.7452 5.58654 23.773 4.35975 22.5471C3.13295 21.3213 2.15972 19.8658 1.49573 18.2637C0.831744 16.6615 0.489994 14.9443 0.489994 13.21C0.488679 11.4748 0.829525 9.75638 1.49292 8.15308C2.15632 6.54978 3.12928 5.09289 4.3562 3.86597C5.58313 2.63905 7.03989 1.66609 8.64319 1.00269C10.2465 0.33929 11.9649 -0.0013112 13.7001 3.79318e-06C15.4344 3.2955e-06 17.1516 0.341632 18.7538 1.00562C20.3559 1.66961 21.8115 2.64284 23.0374 3.86963C24.2632 5.09643 25.2353 6.55287 25.8981 8.15552C26.5608 9.75817 26.9013 11.4757 26.9 13.21C26.9 16.7108 25.5093 20.0682 23.0338 22.5437C20.5583 25.0192 17.2009 26.4099 13.7001 26.4099Z" fill="white"/>
<path d="M13.7001 7.15991C15.6301 7.15991 15.86 7.15991 16.62 7.15991C17.081 7.16482 17.5377 7.2494 17.97 7.40991C18.2827 7.52723 18.5661 7.71157 18.8 7.94995C19.0386 8.18763 19.2229 8.4743 19.3401 8.79004C19.5027 9.21822 19.5873 9.67213 19.5901 10.1301C19.5901 10.8901 19.5901 11.1301 19.5901 13.0601C19.5901 14.9901 19.5901 15.22 19.5901 15.98C19.5852 16.441 19.5006 16.8978 19.3401 17.3301C19.2252 17.644 19.0405 17.9277 18.8 18.1599C18.5661 18.3983 18.2827 18.5826 17.97 18.7C17.5377 18.8605 17.081 18.945 16.62 18.95C15.86 18.95 15.6201 18.95 13.7001 18.95C11.7801 18.95 11.53 18.95 10.77 18.95C10.309 18.945 9.85227 18.8605 9.42004 18.7C9.10858 18.5801 8.82584 18.3961 8.59009 18.1599C8.34963 17.9277 8.16495 17.644 8.05005 17.3301C7.88953 16.8978 7.80495 16.441 7.80005 15.98C7.80005 15.22 7.80005 14.9801 7.80005 13.0601C7.80005 11.1401 7.80005 10.8901 7.80005 10.1301C7.8028 9.67213 7.88747 9.21822 8.05005 8.79004C8.16723 8.4743 8.3515 8.18763 8.59009 7.94995C8.82584 7.71375 9.10858 7.52973 9.42004 7.40991C9.85227 7.2494 10.309 7.16482 10.77 7.15991C11.53 7.15991 11.7701 7.15991 13.7001 7.15991ZM13.7001 5.8501C11.7001 5.8501 11.4801 5.8501 10.7001 5.8501C10.0992 5.86231 9.50452 5.97365 8.94006 6.17993C8.46049 6.36952 8.02493 6.65562 7.66028 7.02026C7.29563 7.38491 7.00965 7.82047 6.82007 8.30005C6.60893 8.86316 6.49719 9.4587 6.48999 10.0601C6.48999 10.8301 6.48999 11.0601 6.48999 13.0601C6.48999 15.0601 6.48999 15.2701 6.48999 16.0601C6.49719 16.6614 6.60893 17.257 6.82007 17.8201C7.00505 18.302 7.2915 18.7386 7.66003 19.1001C8.02053 19.4699 8.45738 19.7564 8.94006 19.9399C9.50379 20.1502 10.0986 20.2652 10.7001 20.28C11.4701 20.28 11.7001 20.28 13.7001 20.28C15.7001 20.28 15.9101 20.28 16.7001 20.28C17.3015 20.2652 17.8964 20.1502 18.4601 19.9399C18.944 19.7587 19.3812 19.4719 19.74 19.1001C20.1085 18.7386 20.3951 18.302 20.5801 17.8201C20.7912 17.257 20.9028 16.6614 20.91 16.0601C20.91 15.2901 20.9601 15.0601 20.9601 13.0601C20.9601 11.0601 20.96 10.8401 20.91 10.0601C20.9028 9.4587 20.7912 8.86316 20.5801 8.30005C20.3926 7.81935 20.1064 7.38327 19.74 7.02002C19.3785 6.65148 18.942 6.36492 18.4601 6.17993C17.8956 5.97365 17.3009 5.86231 16.7001 5.8501C15.9301 5.8501 15.7001 5.8501 13.7001 5.8501Z" fill="#253B80"/>
<path d="M13.7 9.38014C12.9638 9.37816 12.2436 9.59466 11.6306 10.0022C11.0175 10.4098 10.5391 10.9899 10.256 11.6694C9.97295 12.349 9.89782 13.0973 10.0402 13.8196C10.1826 14.5419 10.5361 15.2056 11.056 15.7268C11.5758 16.2481 12.2386 16.6035 12.9605 16.7478C13.6824 16.8922 14.4309 16.8191 15.1113 16.5379C15.7916 16.2566 16.3731 15.7797 16.7823 15.1677C17.1915 14.5558 17.41 13.8363 17.41 13.1001C17.4113 12.6121 17.3163 12.1285 17.1304 11.6773C16.9446 11.226 16.6715 10.8158 16.3268 10.4702C15.9822 10.1247 15.5728 9.85041 15.122 9.66334C14.6712 9.47627 14.1881 9.38014 13.7 9.38014ZM13.7 15.51C13.2205 15.512 12.7512 15.3716 12.3517 15.1065C11.9523 14.8413 11.6405 14.4634 11.4561 14.0208C11.2717 13.5782 11.2229 13.0907 11.316 12.6204C11.409 12.15 11.6398 11.718 11.9788 11.3789C12.3179 11.0399 12.7499 10.8091 13.2203 10.7161C13.6906 10.623 14.1781 10.6718 14.6207 10.8562C15.0633 11.0406 15.4411 11.3522 15.7062 11.7517C15.9714 12.1512 16.1119 12.6206 16.1099 13.1001C16.1099 13.7393 15.8561 14.3522 15.4041 14.8042C14.9522 15.2562 14.3392 15.51 13.7 15.51Z" fill="#253B80"/>
<path d="M18.4301 9.22998C18.4301 9.40205 18.3791 9.57031 18.2835 9.71338C18.1879 9.85645 18.0519 9.96784 17.893 10.0337C17.734 10.0995 17.559 10.1168 17.3903 10.0833C17.2215 10.0497 17.0665 9.96689 16.9448 9.84521C16.8232 9.72354 16.7404 9.56842 16.7068 9.39966C16.6732 9.23089 16.6904 9.05594 16.7562 8.89697C16.8221 8.738 16.9336 8.60219 17.0767 8.50659C17.2197 8.41099 17.388 8.36011 17.5601 8.36011C17.7908 8.36011 18.012 8.45159 18.1752 8.61475C18.3383 8.7779 18.4301 8.99924 18.4301 9.22998Z" fill="#253B80"/>
</svg>
