<svg width="27" height="28" viewBox="0 0 27 28" fill="none" xmlns="http://www.w3.org/2000/svg">
<path d="M13.3401 27.3001C11.6058 27.3014 9.88818 26.9609 8.28553 26.2981C6.68287 25.6353 5.22655 24.6631 3.99976 23.4373C2.77297 22.2114 1.79973 20.756 1.13575 19.1538C0.471759 17.5517 0.130008 15.8344 0.130009 14.1001C0.128694 12.365 0.46954 10.6465 1.13294 9.04322C1.79634 7.43991 2.7693 5.98303 3.99622 4.75611C5.22314 3.52918 6.6799 2.55622 8.28321 1.89283C9.88651 1.22943 11.605 0.888826 13.3401 0.890141C16.8436 0.890141 20.2036 2.28168 22.6809 4.75904C25.1583 7.23639 26.5501 10.5966 26.5501 14.1001C26.5474 17.6019 25.1544 20.9591 22.6774 23.4343C20.2003 25.9095 16.8419 27.3001 13.3401 27.3001Z" fill="white"/>
<path d="M10.0801 11.1499H7.3501V19.98H10.0801V11.1499Z" fill="#253B80"/>
<path d="M8.7001 10.0001C9.02331 10.0041 9.34032 9.91188 9.61099 9.7352C9.88166 9.55852 10.0937 9.30538 10.2201 9.0079C10.3466 8.71043 10.3818 8.38204 10.3212 8.06454C10.2606 7.74705 10.1069 7.45467 9.87979 7.2247C9.65265 6.99474 9.36216 6.83757 9.04544 6.77304C8.72872 6.70851 8.39999 6.73964 8.10098 6.8624C7.80197 6.98516 7.54625 7.19403 7.36624 7.46249C7.18624 7.73096 7.09014 8.04698 7.09012 8.37021C7.0888 8.58295 7.12931 8.79376 7.2095 8.99081C7.2897 9.18787 7.40802 9.36729 7.55753 9.51865C7.70703 9.67001 7.88479 9.79027 8.08084 9.87289C8.27689 9.95552 8.48736 9.99878 8.7001 10.0001Z" fill="#253B80"/>
<path d="M14.4501 15.3501C14.4501 14.1101 15.02 13.3501 16.12 13.3501C17.22 13.3501 17.61 14.0601 17.61 15.3501V19.98H20.3301V14.3902C20.3301 12.0302 18.99 10.8801 17.11 10.8801C16.5783 10.8732 16.0539 11.0039 15.5878 11.2598C15.1216 11.5156 14.7297 11.8878 14.4501 12.3401V11.1502H11.8301V19.98H14.4501V15.3501Z" fill="#253B80"/>
</svg>
