<svg xmlns="http://www.w3.org/2000/svg" viewBox="0 0 282.36 176.96"><defs><style>.cls-1{fill:#e1e1e1;}.cls-2{fill:#d05216;}</style></defs><g id="Layer_2" data-name="Layer 2"><g id="Calque_1" data-name="Calque 1"><path class="cls-1" d="M102.21,110.11A5,5,0,0,1,105,111a33.06,33.06,0,0,1,3.21-6.45,4.67,4.67,0,0,1,0-3.77,2.33,2.33,0,0,1,1.91-1.52c.61,0,1.5.19,2.33,1.54.47.76.9.81,1.05.83a3,3,0,0,0,2-.86c1.51-4.74,6.11-5.21,8.75-4.74l15.41-10.91.59.38c8.37,5.37,18.42,0,18.53,0l.23-.13h11.78a9.26,9.26,0,0,0,7.64-3.19c6.19-7.11,4.46-23.78,3.9-28l-7.87.94.4-1.49c.93-3.42-4.32-7.42-6.68-8.84-3.5-.2-6.15-1.34-7.89-3.36a9.18,9.18,0,0,1-2.08-5.94L114.38,0,99.55,1.4V72.22l3.38,2-3.76,7.89H55.78L52.46,84,52.07,84c-.26-.06-5.86-1.14-8.59,2.76,1,1.63,2.24,4.15,1.81,6.4a4.37,4.37,0,0,1-1.08,2.18c1.88,1.24,4,3.82,3.81,8.18a5.26,5.26,0,0,1-1,3.19L48,109l2.93-1.88,1.88,2.39h1.59l4.71-2h1.46l2.53-1.38,1.5-.6a3.64,3.64,0,0,1,3.63.21c1.4,1,1.85,3.21,1.39,6.62A3.79,3.79,0,0,1,72,114.14c.63,1.26.43,2.89-.61,4.87h2l1.73,6.35,2.52-1.14,1.84.79a4.16,4.16,0,0,0,1.64.91h1.7l.72-.21v-1.06c0-1.36,1.94-2.65,3.11-2.65a9.62,9.62,0,0,1,1.87.26l3.74,1-.52,1.12a8.45,8.45,0,0,0-.91,2.85.49.49,0,0,0,.33.18c.65.14,2-.31,4-2,1.49-1.24,1.42-4,1.36-6.62-.06-2.43-.12-4.73,1-6.14C99,111,100.52,110.09,102.21,110.11Z"/><path class="cls-1" d="M136.16,120.83l5.26-1.16,1.49,2h7c1.06-1.45,4.55-5.64,8.65-4.5,2.22.62,4.3-1.07,5.48-2.31a3.52,3.52,0,0,1-.8-.59,8.2,8.2,0,0,1-1.79-4.8,4.63,4.63,0,0,1-3.11,1c-3.66-.26-6.23-5-6.51-5.53l-.48-.91,2.46-1.3C146,98,145.67,92.31,146,89.83a17,17,0,0,1-6.31-2.18l-15,10.64-.45-.11c-.23-.05-5.51-1.23-6.83,3.48l-.07.26-.19.19a5.3,5.3,0,0,1-3.88,1.62,3.52,3.52,0,0,1-2.58-1.8,1.53,1.53,0,0,0-.49-.57c.06,0-.14.3-.23.8a2.35,2.35,0,0,0,.35,1.81l.47.6-.43.62a29.29,29.29,0,0,0-3.77,8l-.49,2.12-1.33-1.72a3.77,3.77,0,0,0-2.52-1.36c-1-.06-2,.61-3,1.84-.68.82-.63,2.83-.58,4.77.06,2.29.11,4.8-.86,6.7a9.22,9.22,0,0,1,3.32,3.17c2.35,3.33,3.84,3,8.26,2.15l.14,0c3-.6,6.58,1.25,9,2.9-.25-.69-.47-1.35-.62-1.91-.44-1.75-1.15-6.15,1.83-9.18S128.15,119,136.16,120.83Z"/><path class="cls-1" d="M156.31,160.45V141.1c-2.12-3.74-1.84-5.77-1.66-7.12.14-1,.16-1.15-1.45-2-3.57-1.8-4.19-5.67-4-8.25h-4.8l.5.69,2,4.44-.05.31a32,32,0,0,0,1.35,13.85l.05.32v16.68l4.46,6.86a64,64,0,0,1,6.32-2.33Z"/><path class="cls-2" d="M277.8,72.12,281,47.35l1.4-2.81L272.89,34.4V25.63l-5.51,3.06L267,27.54c-1.67-4.69-12.33-7.63-16.78-8.47l-51,33.08-14.88,1.79c.61,4.5,2.43,21.77-4.4,29.61a11.22,11.22,0,0,1-9.22,3.89H159.45A25.16,25.16,0,0,1,148,90c-.3,2-.18,7.36,8.44,11.83l1.75.91-4,2.13c.91,1.4,2.58,3.41,4.29,3.53,1,.06,2.08-.61,3.09-2l2.1-2.92-.22,3.59c-.06,1.11,0,4.56,1.25,5.79a1.38,1.38,0,0,0,.67.38c.73-.93,2.5-2.74,4.77-2.37,1.41.23,2.67,1.24,3.8,3,1.4-4.31,4.57-12.63,8.62-14.17,3.56-1.35,12.5-3.14,17.42,0a7.06,7.06,0,0,1,3.33,5.75c.08,1,.49,1.21.64,1.28,1.74.84,6.74-1.64,9.73-3.67l.63-.43.6.48a17.49,17.49,0,0,0,18.25,1.49c9.51-4.66,15.22-1.24,17,.16,2-1,7.94-3.65,11.37-4.11A13.8,13.8,0,0,1,261,96C261.57,84.57,275.27,74,277.8,72.12Z"/><path class="cls-1" d="M175.21,123.2c-2.14-8.84-4.49-10.15-5.41-10.31-1.33-.21-2.68,1.38-3.05,2l-.28.45h-.05c-1,1.29-4.34,5-8.43,3.91-3-.83-6,3.14-6.58,4-.17.93-.75,5.27,2.72,7,2.74,1.37,2.8,2.51,2.58,4.09-.16,1.17-.38,2.76,1.53,6l.15.24v19.29l2.72,4.15c1.57-.43,3.26-.82,5-1.13l.81-23.42.27-.28C175.33,130.59,175.25,123.9,175.21,123.2Z"/><path class="cls-1" d="M34.89,127.65v-1.28l1.25.26c4.27.92,9.44,1.65,10.32,1.28l.69-.46.56.61c.32.31,7.73,7.6,4.43,13.06a2.76,2.76,0,0,0,.22,1.49s.13,0,.39-.17l.49-.23c1.65-.83,4.41-2.22,6.71-.79,2,1.26,3,4.37,3,9.5,0,1.08.21,1.82.58,2,.9.39,3.21-1,4.8-2.37a6,6,0,0,1-.09-1A1.61,1.61,0,0,1,69,148a1.52,1.52,0,0,1,1.6.24c.33.21.55.34.7.31a9,9,0,0,0,1.88-1.65,3,3,0,0,1-.4-.65c-.14-.27-.43-.82-1.33-2.37-.35-.61-1.29-2.22-.4-3.27a1.92,1.92,0,0,1,1.84-.54l.9-1.05,1.09-2-.61-1.36-2-1.53V130l1-1.68.3-.74-1.78-6.51H67.55l1.11-1.62c1.84-2.69,1.7-3.9,1.46-4.39-.41-.81-1.74-.9-1.75-.9l-1.19,0,.21-1.17c.76-4.33-.13-5.38-.42-5.61-.57-.43-1.55,0-1.56,0L64,108l-2.88,1.58H59.51l-4.71,2h-3l-1.35-1.71L47,112.09l-1.72-4.25a5.9,5.9,0,0,1-1.51.18,28.53,28.53,0,0,1-5.68-.94,68.21,68.21,0,0,0-7.8-1.44l-.86-.11c-2.08.54-2,2.75-2,3.49,1,1.3,2,2.87,1.17,4s-2.88.77-3.48.6l-.13,0c-3.13-1.41-7.24.4-9.91,2,1.85,2.26,3.81,4.88,5.83,7.91A43.2,43.2,0,0,1,29,135.26C32.05,132.62,34.89,129.54,34.89,127.65Z"/><path class="cls-2" d="M116.84,171.08c-1.09-2.2-5.25-11.38-.69-15,1.79-1.42,1.61-3.4,1.42-5.5-.21-2.25-.45-4.8,2.22-6.14,1.86-.93,1.09-4.14,0-7.17-1.85-1.61-6.72-5.11-10-4.48l-.14,0c-4.51.9-7.24,1.45-10.36-3-1.74-2.46-2.8-2.65-3.06-2.65-2.19,1.78-4.13,2.57-5.61,2.26a2.5,2.5,0,0,1-1.78-1.36c-.41-.82-.08-2.19.42-3.46L88,124.27a7,7,0,0,0-1.34-.19,2.15,2.15,0,0,0-1,.67v2.53l-2.65.71H81.08a5.33,5.33,0,0,1-2.83-1.28l-.6-.24-1.75.8-.85,2.07-.76,1.25v2.53l1.64,1.23,1.24,2.79-1.75,3.17-1.85,2.16-.68-.26a6.69,6.69,0,0,0,.33.65c.94,1.61,1.24,2.18,1.38,2.47a3.34,3.34,0,0,0,.4.59,1.55,1.55,0,0,1,.28,1.22c-.23,1.31-2.19,2.72-3,3.27l-.25.12a2.48,2.48,0,0,1-1.53,0,7.65,7.65,0,0,0,.41,1.17,8.86,8.86,0,0,1,.37,1.05,5.19,5.19,0,0,1-.77,3.16l0,.06a2,2,0,0,1-.51,2.7l-.5.38v1.34c2.28,1.07,9.59,5,7.54,10.92a6.28,6.28,0,0,0,.12,4.72c7.36-2.05,26-6.49,39.25-3.2Z"/><path class="cls-1" d="M146.17,160.67V143.54a34.12,34.12,0,0,1-1.41-14.37l-1.68-3.76L140.56,122l-4.41,1-.23,0c-7.27-1.69-12.37-1.29-14.75,1.14s-1.57,6.12-1.29,7.22a31.33,31.33,0,0,0,1.05,3.05c1.61,4.22,3.8,10-.21,12-1.28.63-1.31,1.68-1.09,4.09s.48,5.21-2.19,7.31c-3,2.4,0,10,1.43,12.77l.19.36-.71,2.53a20,20,0,0,1,6.74,3.58s6.91-7.84,17.51-7.38c0,0,1.37-4.07,8.15-1.88Z"/><path class="cls-1" d="M25.79,111.69a3.85,3.85,0,0,0,1,.14,6.72,6.72,0,0,0-1.12-1.74l-.16-.2,0-.26a6,6,0,0,1,1-4.52l-1.31-.19c-6.14-1-10.06-1.55-18.33,1.92a71.68,71.68,0,0,1,7,7.13C16.77,112.17,21.73,109.92,25.79,111.69Z"/><path class="cls-1" d="M2.05,103.23a27.44,27.44,0,0,1,3,2.12c9.49-4.17,13.92-3.49,20.43-2.48,1.57.24,3.2.49,5.08.71a71.62,71.62,0,0,1,8,1.48c3.06.69,5.71,1.29,6.69.53a2.82,2.82,0,0,0,.72-2.17c.2-5.59-3.92-6.91-4-6.92l-2.36-.72,2.17-1.18a2.63,2.63,0,0,0,1.47-1.85c.34-1.78-1-4.17-2-5.57L40.93,87a1.25,1.25,0,0,0-.24-.67h0a7.07,7.07,0,0,0-3.1-2.23c-4.11-1.85-4.71-7.8-4.77-10.39l-4.1.44-.23-.86a6.85,6.85,0,0,0-3.14-3.92c-1.67-.83-3.79-.75-6.31.24a13,13,0,0,1-9.22.27c-.13.2-.24.4-.38.61,0,0-11.06,13.82-9.21,13.82s3.68,3.23,3.68,3.23l.47,7.37a18.92,18.92,0,0,0-.93,4.15A14,14,0,0,1,2.05,103.23Z"/></g></g></svg>