<svg width="27" height="27" viewBox="0 0 27 27" fill="none" xmlns="http://www.w3.org/2000/svg">
<path d="M13.5007 26.43C10.983 26.43 8.52177 25.6834 6.42834 24.2846C4.3349 22.8858 2.70324 20.8976 1.73974 18.5715C0.776234 16.2454 0.524183 13.6859 1.01537 11.2165C1.50656 8.7471 2.71894 6.4788 4.49926 4.69848C6.27958 2.91816 8.54783 1.70578 11.0172 1.21459C13.4866 0.723402 16.0462 0.975453 18.3723 1.93896C20.6984 2.90246 22.6865 4.53412 24.0853 6.62756C25.4841 8.72099 26.2307 11.1822 26.2307 13.6999C26.2281 17.0753 24.886 20.3117 22.4993 22.6985C20.1125 25.0852 16.8761 26.4273 13.5007 26.43ZM13.5007 1.42998C11.07 1.42998 8.6938 2.15077 6.67272 3.50121C4.65164 4.85166 3.07643 6.77107 2.14623 9.01678C1.21603 11.2625 0.972679 13.7336 1.44689 16.1176C1.9211 18.5016 3.09163 20.6915 4.81042 22.4103C6.5292 24.1291 8.71899 25.2996 11.103 25.7738C13.487 26.248 15.9581 26.0047 18.2038 25.0745C20.4496 24.1443 22.369 22.569 23.7195 20.5479C25.0699 18.5268 25.7908 16.1507 25.7908 13.72C25.7908 10.4586 24.4965 7.33051 22.1923 5.02251C19.888 2.71452 16.7621 1.41526 13.5007 1.40996V1.42998Z" fill="#D05216"/>
<path d="M16.6307 21.29L13.3507 18.1H8.41077C7.91216 18.1 7.43399 17.9019 7.08142 17.5494C6.72885 17.1968 6.53076 16.7186 6.53076 16.22V10.02C6.5334 9.52315 6.73256 9.04755 7.08484 8.69714C7.43712 8.34674 7.91389 8.15002 8.41077 8.15002H18.6007C19.0976 8.15002 19.5742 8.34674 19.9265 8.69714C20.2788 9.04755 20.4781 9.52315 20.4807 10.02V16.22C20.4807 16.7186 20.2826 17.1968 19.9301 17.5494C19.5775 17.9019 19.0993 18.1 18.6007 18.1H17.3307L16.6307 21.29ZM8.41077 8.36005C7.97051 8.36005 7.54825 8.53494 7.23694 8.84625C6.92563 9.15756 6.75073 9.57976 6.75073 10.02V16.22C6.75073 16.6603 6.92563 17.0825 7.23694 17.3938C7.54825 17.7051 7.97051 17.88 8.41077 17.88H13.4108L16.4707 20.88L17.1207 17.88H18.5707C19.0109 17.88 19.4332 17.7051 19.7445 17.3938C20.0558 17.0825 20.2307 16.6603 20.2307 16.22V10.02C20.2281 9.58057 20.0523 9.15986 19.7416 8.84912C19.4308 8.53838 19.0101 8.36267 18.5707 8.36005H8.41077Z" fill="#D05216"/>
<path d="M9.73071 14.67C10.5039 14.67 11.1307 14.0432 11.1307 13.27C11.1307 12.4968 10.5039 11.87 9.73071 11.87C8.95751 11.87 8.33075 12.4968 8.33075 13.27C8.33075 14.0432 8.95751 14.67 9.73071 14.67Z" fill="#D05216"/>
<path d="M13.5007 14.67C14.2739 14.67 14.9008 14.0432 14.9008 13.27C14.9008 12.4968 14.2739 11.87 13.5007 11.87C12.7275 11.87 12.1007 12.4968 12.1007 13.27C12.1007 14.0432 12.7275 14.67 13.5007 14.67Z" fill="#D05216"/>
<path d="M17.2808 14.67C18.054 14.67 18.6807 14.0432 18.6807 13.27C18.6807 12.4968 18.054 11.87 17.2808 11.87C16.5076 11.87 15.8807 12.4968 15.8807 13.27C15.8807 14.0432 16.5076 14.67 17.2808 14.67Z" fill="#D05216"/>
</svg>
