<svg width="8" height="8" viewBox="0 0 8 8" fill="none" xmlns="http://www.w3.org/2000/svg">
<path d="M4.03073 7.39005C5.82013 7.39005 7.27072 5.93943 7.27072 4.15002C7.27072 2.36062 5.82013 0.910034 4.03073 0.910034C2.24133 0.910034 0.790741 2.36062 0.790741 4.15002C0.790741 5.93943 2.24133 7.39005 4.03073 7.39005Z" fill="white"/>
<path d="M3.79074 2.44995L5.74072 4.40994L3.79074 6.35992" fill="#253B80"/>
<path d="M4.57074 4.48999V4.31995C4.57074 3.94439 4.2663 3.64001 3.89075 3.64001H3.00073C2.62518 3.64001 2.32074 3.94439 2.32074 4.31995V4.48999C2.32074 4.86554 2.62518 5.16992 3.00073 5.16992H3.89075C4.2663 5.16992 4.57074 4.86554 4.57074 4.48999Z" fill="#253B80"/>
</svg>
