<svg width="28" height="28" viewBox="0 0 28 28" fill="none" xmlns="http://www.w3.org/2000/svg">
<path d="M14.03 27.3001C10.5283 27.3001 7.1697 25.9095 4.69263 23.4343C2.21556 20.9591 0.822719 17.6019 0.820068 14.1001C0.820068 10.5966 2.21185 7.23639 4.68921 4.75904C7.16656 2.28168 10.5265 0.890141 14.03 0.890141C15.7652 0.888826 17.4835 1.22943 19.0868 1.89283C20.6901 2.55622 22.147 3.52918 23.3739 4.75611C24.6008 5.98303 25.5738 7.43991 26.2372 9.04322C26.9006 10.6465 27.2413 12.365 27.24 14.1001C27.24 15.8344 26.8982 17.5517 26.2343 19.1538C25.5703 20.756 24.5972 22.2114 23.3704 23.4373C22.1436 24.6631 20.6871 25.6353 19.0845 26.2981C17.4818 26.9609 15.7643 27.3014 14.03 27.3001Z" fill="white"/>
<path d="M7.03003 18.5301C8.29767 19.3448 9.76515 19.7949 11.2716 19.8311C12.7781 19.8674 14.2653 19.4885 15.5707 18.7357C16.876 17.9828 17.9491 16.8851 18.6721 15.5631C19.3952 14.241 19.7404 12.7453 19.67 11.2401C20.2337 10.8277 20.7209 10.3201 21.11 9.74006C20.5824 9.97461 20.0231 10.1296 19.4501 10.2C20.0516 9.83631 20.5023 9.26859 20.72 8.60017C20.1533 8.93404 19.5348 9.1706 18.89 9.30012C18.4548 8.83804 17.8795 8.53202 17.2531 8.42952C16.6266 8.32701 15.9838 8.43372 15.424 8.73298C14.8641 9.03224 14.4184 9.50742 14.1556 10.0853C13.8929 10.6631 13.8275 11.3114 13.97 11.93C12.8154 11.8787 11.6846 11.5853 10.6509 11.0684C9.61719 10.5516 8.70377 9.82286 7.96997 8.93001C7.60275 9.56598 7.4914 10.3179 7.65857 11.033C7.82574 11.7481 8.2589 12.3728 8.87 12.7801C8.41015 12.7711 7.95991 12.6473 7.56006 12.42C7.55343 13.0933 7.78128 13.7481 8.20459 14.2718C8.6279 14.7955 9.22024 15.1555 9.88 15.2901C9.45236 15.4032 9.00508 15.4203 8.57007 15.3402C8.75681 15.9126 9.11701 16.4127 9.60083 16.7711C10.0846 17.1295 10.668 17.3283 11.27 17.3402C10.0671 18.2769 8.54467 18.7041 7.03003 18.5301Z" fill="#253B80"/>
</svg>
