<svg width="25" height="25" viewBox="0 0 25 25" fill="none" xmlns="http://www.w3.org/2000/svg">
<path d="M24.47 0.189941H0.550049V24.1101H24.47V0.189941Z" fill="#D05427"/>
<path d="M6.11999 13.5301C6.38752 13.6488 6.68148 13.6956 6.97265 13.6658C7.26382 13.636 7.54211 13.5306 7.78002 13.3602C9.54002 11.8902 11.19 10.36 12.66 8.92998C13.25 9.47998 13.86 10.0301 14.47 10.5701C15.47 11.4801 16.6201 12.4502 17.8101 13.3802C18.0508 13.5461 18.3311 13.6454 18.6226 13.6683C18.914 13.6911 19.2063 13.6365 19.47 13.5101C19.99 13.2601 20.1401 12.78 19.8101 12.41C17.8101 10.2 15.7401 8.14996 13.9401 6.40996L13.63 6.12016C13.3508 5.88493 12.995 5.76028 12.63 5.77007C12.2619 5.76292 11.9048 5.89519 11.63 6.14018C9.63 8.14018 7.63001 10.2 5.77001 12.41C5.42001 12.75 5.57999 13.2301 6.11999 13.5301Z" fill="white"/>
<path d="M7.61001 18.73C7.81608 18.8223 8.04274 18.8588 8.26736 18.836C8.49197 18.8132 8.70672 18.7319 8.89004 18.6002C10.26 17.4602 11.5401 16.26 12.6901 15.16C13.1501 15.59 13.62 16.01 14.1 16.43C14.9 17.14 15.7701 17.8902 16.6801 18.6202C16.87 18.7471 17.0892 18.8229 17.3169 18.8404C17.5446 18.8579 17.773 18.8164 17.98 18.72C18.38 18.52 18.5 18.1502 18.24 17.8602C16.72 16.1502 15.0801 14.55 13.6801 13.22L13.4401 13.0001C13.226 12.8095 12.9465 12.7092 12.6601 12.72C12.3721 12.7108 12.092 12.815 11.88 13.0101C10.36 14.5201 8.7701 16.1602 7.3301 17.8802C7.0301 18.1702 7.19001 18.53 7.61001 18.73Z" fill="white"/>
</svg>
