<svg width="22" height="22" viewBox="0 0 22 22" fill="none" xmlns="http://www.w3.org/2000/svg">
<path fill-rule="evenodd" clip-rule="evenodd" d="M18.42 3.5301C17.4412 2.54312 16.2756 1.7608 14.9915 1.22859C13.7073 0.696378 12.3301 0.424819 10.9401 0.430005C9.08259 0.429979 7.25769 0.918688 5.64868 1.84675C4.03967 2.77482 2.70314 4.10975 1.77307 5.7176C0.843007 7.32546 0.352137 9.14968 0.349854 11.0072C0.34757 12.8646 0.833902 14.69 1.76001 16.3001L0.26001 21.7801L5.87 20.3101C7.42317 21.1542 9.16236 21.5976 10.9301 21.6002C13.0222 21.5969 15.0664 20.974 16.8049 19.8101C18.5434 18.6463 19.8982 16.9934 20.6984 15.0604C21.4985 13.1273 21.7082 11.0006 21.3009 8.94856C20.8936 6.89647 19.8877 5.01107 18.41 3.5301H18.42ZM10.9401 19.8101C9.36604 19.8135 7.82069 19.3883 6.46997 18.5802L6.14001 18.3902L2.81006 19.2701L3.70007 16.0201L3.48999 15.69C2.45249 14.0379 1.99338 12.088 2.18481 10.1466C2.37625 8.20512 3.20742 6.38231 4.54761 4.96467C5.8878 3.54703 7.66112 2.61487 9.58875 2.31477C11.5164 2.01467 13.4891 2.36358 15.1968 3.30671C16.9045 4.24985 18.2504 5.73386 19.0229 7.52522C19.7955 9.31658 19.9509 11.3139 19.4647 13.2032C18.9786 15.0925 17.8784 16.7665 16.3372 17.9625C14.7959 19.1584 12.9009 19.8084 10.9501 19.8101H10.9401ZM15.76 13.22C15.5 13.09 14.2001 12.4502 13.9501 12.3602C13.7001 12.2702 13.54 12.2301 13.36 12.5001C13.18 12.7701 12.68 13.3601 12.52 13.5001C12.36 13.6401 12.2101 13.7001 11.9501 13.5701C11.1681 13.2631 10.4468 12.8195 9.82007 12.2601C9.24683 11.7219 8.75191 11.1058 8.34998 10.43C8.32087 10.3871 8.30087 10.3388 8.29114 10.2879C8.28141 10.237 8.28222 10.1847 8.29346 10.1341C8.3047 10.0835 8.3262 10.0359 8.35657 9.99397C8.38693 9.95199 8.42545 9.91671 8.46997 9.89021C8.58997 9.77021 8.72999 9.57999 8.85999 9.41999C8.97426 9.28968 9.06558 9.14095 9.13 8.98005C9.16765 8.90923 9.18738 8.83028 9.18738 8.75007C9.18738 8.66987 9.16765 8.59091 9.13 8.52009C9.06 8.39009 8.53006 7.08009 8.31006 6.52009C8.09006 5.96009 7.87997 6.08014 7.71997 6.07014H7.21008C7.07563 6.07456 6.94341 6.10597 6.82141 6.16267C6.69941 6.21937 6.59006 6.30028 6.5 6.40022C6.20317 6.68571 5.96834 7.02904 5.81006 7.40925C5.65178 7.78947 5.57352 8.19839 5.58008 8.61018C5.66586 9.6061 6.04126 10.5551 6.66003 11.3402C7.792 13.0449 9.35027 14.4239 11.1801 15.3402C11.6701 15.5495 12.1708 15.7332 12.6801 15.8902C13.2207 16.0557 13.7923 16.0932 14.35 16.0001C14.7175 15.9242 15.0655 15.7731 15.3718 15.5562C15.6782 15.3394 15.9363 15.0615 16.13 14.7401C16.3 14.3433 16.3555 13.9068 16.29 13.4801C16.2 13.3701 16.03 13.31 15.76 13.17V13.22Z" fill="white"/>
</svg>
