<svg width="82" height="34" viewBox="0 0 82 34" fill="none" xmlns="http://www.w3.org/2000/svg">
<mask id="mask0_1_883" style="mask-type:luminance" maskUnits="userSpaceOnUse" x="0" y="-1" width="82" height="35">
<path d="M81.3401 -0.0100098H0.849976V33.24H81.3401V-0.0100098Z" fill="white"/>
</mask>
<g mask="url(#mask0_1_883)">
<path d="M1.20007 20.28V0.959961L3.13 0.860107H4.21997C4.72972 0.875184 5.21447 1.08422 5.57507 1.44482C5.93568 1.80543 6.14496 2.2903 6.16003 2.80005V20.28C6.14496 20.7898 5.93568 21.2744 5.57507 21.635C5.21447 21.9956 4.72972 22.2049 4.21997 22.22H1.21997L1.20007 20.28Z" fill="white"/>
<path d="M17.78 0.860107H16.88C16.3496 0.860107 15.8409 1.07073 15.4658 1.4458C15.0907 1.82087 14.88 2.32967 14.88 2.86011V20.1401C14.88 20.6706 15.0907 21.1791 15.4658 21.5542C15.8409 21.9293 16.3496 22.1401 16.88 22.1401H17.78C18.3105 22.1401 18.8191 21.9293 19.1942 21.5542C19.5693 21.1791 19.78 20.6706 19.78 20.1401V0.850098L17.78 0.860107Z" fill="white"/>
<path d="M62.76 1.38013L63.63 1.70996C64.1515 1.91392 64.5729 2.3134 64.8044 2.82324C65.036 3.33308 65.0595 3.91302 64.87 4.43994L58.79 21.22C58.6966 21.4767 58.553 21.7124 58.3677 21.9131C58.1823 22.1138 57.9589 22.2754 57.7104 22.3889C57.462 22.5024 57.1934 22.5655 56.9204 22.5742C56.6474 22.583 56.3752 22.5373 56.12 22.4399L55.25 22.1101C54.729 21.9081 54.3072 21.5111 54.0738 21.0034C53.8405 20.4957 53.814 19.9171 54 19.3901L60.79 0.659912L62.76 1.38013Z" fill="#0B5383"/>
<path d="M62.5601 1.36006L63.47 1.01997C64.0223 0.821468 64.6291 0.8378 65.1699 1.06562C65.7108 1.29345 66.1462 1.71611 66.39 2.24995L73.8101 19.25C73.9246 19.5075 73.985 19.7857 73.9877 20.0676C73.9903 20.3494 73.9351 20.629 73.8254 20.8886C73.7158 21.1483 73.554 21.3825 73.3501 21.5771C73.1462 21.7717 72.9045 21.9225 72.64 22.02L71.73 22.3601C71.178 22.5634 70.5694 22.5493 70.0273 22.321C69.4852 22.0926 69.0502 21.6671 68.8101 21.1301L60.52 2.13008L62.5601 1.36006Z" fill="#0B5383"/>
<path d="M27.39 22.22H28.39C29.1009 22.2147 29.7811 21.9294 30.2828 21.4258C30.7846 20.9222 31.0675 20.2409 31.0701 19.53V0.870117H27.36C26.6491 0.875378 25.969 1.16069 25.4673 1.66431C24.9655 2.16793 24.6827 2.84916 24.6801 3.56006V22.22H27.39Z" fill="white"/>
<path d="M43.5901 22.22H44.2101C44.974 22.2147 45.705 21.9083 46.2443 21.3672C46.7835 20.8261 47.0875 20.094 47.0901 19.3301V3.75C47.0875 2.98606 46.7835 2.25402 46.2443 1.71289C45.705 1.17176 44.974 0.865372 44.2101 0.860107H43.5901C42.8244 0.862743 42.0908 1.16806 41.5494 1.70947C41.008 2.25088 40.7027 2.98434 40.7001 3.75V22.22H43.5901Z" fill="#0B5383"/>
<path d="M34.5401 0.860107H51.7101C51.911 0.860107 52.1099 0.899673 52.2956 0.976562C52.4812 1.05345 52.6498 1.16603 52.7919 1.30811C52.934 1.45018 53.0467 1.61882 53.1236 1.80444C53.2005 1.99007 53.24 2.18921 53.24 2.39014V3.39014C53.2414 3.59143 53.2027 3.79082 53.1263 3.97705C53.0498 4.16328 52.9373 4.33251 52.795 4.47485C52.6526 4.61719 52.4834 4.72973 52.2972 4.80615C52.1109 4.88257 51.9114 4.92125 51.7101 4.91992H36.0301C35.8288 4.92125 35.6293 4.88257 35.443 4.80615C35.2568 4.72973 35.0876 4.61719 34.9452 4.47485C34.8029 4.33251 34.6902 4.16328 34.6138 3.97705C34.5374 3.79082 34.4987 3.59143 34.5 3.39014V2.39014" fill="#0B5383"/>
<path d="M60.79 0.659912L64.63 0.909912L66.31 4.6499L60.79 5.05005V0.659912Z" fill="#0B5383"/>
<path d="M68.4 13.6599H57.76V17.05H68.4V13.6599Z" fill="#0B5383"/>
<path d="M5.82005 9.8501L15.2101 21.3401L16.8801 21.8799L15.2401 13.1399L5.46005 0.879883L2.19006 0.909912L3.68005 9.8501H5.82005Z" fill="white"/>
<mask id="mask1_1_883" style="mask-type:luminance" maskUnits="userSpaceOnUse" x="24" y="-18" width="63" height="45">
<path d="M86.03 4.45996C86.03 16.46 72.3 26.23 55.37 26.23C38.44 26.23 24.7101 16.49 24.7101 4.45996C24.7101 -7.57004 38.44 -17.3201 55.37 -17.3201C72.3 -17.3201 86.03 -7.57004 86.03 4.45996Z" fill="white"/>
</mask>
<g mask="url(#mask1_1_883)">
<path d="M62.76 1.38013L63.63 1.70996C64.1515 1.91392 64.5729 2.3134 64.8044 2.82324C65.036 3.33308 65.0595 3.91302 64.87 4.43994L58.79 21.22C58.6966 21.4767 58.553 21.7124 58.3677 21.9131C58.1823 22.1138 57.9589 22.2754 57.7104 22.3889C57.462 22.5024 57.1934 22.5655 56.9204 22.5742C56.6474 22.583 56.3752 22.5373 56.12 22.4399L55.25 22.1101C54.729 21.9081 54.3072 21.5111 54.0738 21.0034C53.8405 20.4957 53.814 19.9171 54 19.3901L60.79 0.659912L62.76 1.38013Z" fill="white"/>
<path d="M62.5601 1.36006L63.47 1.01997C64.0223 0.821468 64.6291 0.8378 65.1699 1.06562C65.7108 1.29345 66.1462 1.71611 66.39 2.24995L73.8101 19.25C73.9246 19.5075 73.985 19.7857 73.9877 20.0676C73.9903 20.3494 73.9351 20.629 73.8254 20.8886C73.7158 21.1483 73.554 21.3825 73.3501 21.5771C73.1462 21.7717 72.9045 21.9225 72.64 22.02L71.73 22.3601C71.178 22.5634 70.5694 22.5493 70.0273 22.321C69.4852 22.0926 69.0502 21.6671 68.8101 21.1301L60.52 2.13008L62.5601 1.36006Z" fill="white"/>
<path d="M27.39 22.22H28.39C29.1009 22.2147 29.7811 21.9294 30.2828 21.4258C30.7846 20.9222 31.0675 20.2409 31.0701 19.53V0.870117H27.36C26.6491 0.875378 25.969 1.16069 25.4673 1.66431C24.9655 2.16793 24.6827 2.84916 24.6801 3.56006V22.22H27.39Z" fill="white"/>
<path d="M43.5901 22.22H44.2101C44.974 22.2147 45.705 21.9083 46.2443 21.3672C46.7835 20.8261 47.0875 20.094 47.0901 19.3301V3.75C47.0875 2.98606 46.7835 2.25402 46.2443 1.71289C45.705 1.17176 44.974 0.865372 44.2101 0.860107H43.5901C42.8244 0.862743 42.0908 1.16806 41.5494 1.70947C41.008 2.25088 40.7027 2.98434 40.7001 3.75V22.22H43.5901Z" fill="white"/>
<path d="M34.5401 0.860107H51.7101C51.911 0.860107 52.1099 0.899673 52.2956 0.976562C52.4812 1.05345 52.6498 1.16603 52.7919 1.30811C52.934 1.45018 53.0467 1.61882 53.1236 1.80444C53.2005 1.99007 53.24 2.18921 53.24 2.39014V3.39014C53.2414 3.59143 53.2027 3.79082 53.1263 3.97705C53.0498 4.16328 52.9373 4.33251 52.795 4.47485C52.6526 4.61719 52.4834 4.72973 52.2972 4.80615C52.1109 4.88257 51.9114 4.92125 51.7101 4.91992H36.0301C35.8288 4.92125 35.6293 4.88257 35.443 4.80615C35.2568 4.72973 35.0876 4.61719 34.9452 4.47485C34.8029 4.33251 34.6902 4.16328 34.6138 3.97705C34.5374 3.79082 34.4987 3.59143 34.5 3.39014V2.39014" fill="white"/>
<path d="M60.79 0.659912L64.63 0.909912L66.31 4.6499L60.79 5.05005V0.659912Z" fill="white"/>
<path d="M68.4 13.6599H57.76V17.05H68.4V13.6599Z" fill="white"/>
</g>
<path d="M30.5 18.29L30.72 17.4299C33.421 20.1388 36.6722 22.2361 40.2538 23.5801C43.8353 24.924 47.6637 25.4832 51.48 25.22C61.75 24.68 70.48 18.9 74.37 10.97L77.4601 8.84009C77.3667 9.16675 77.2667 9.50009 77.16 9.84009C73.91 19.4901 63.61 26.54 51.39 26.54C47.5952 26.593 43.8277 25.8909 40.3066 24.4746C36.7856 23.0583 33.5812 20.956 30.88 18.29H30.5Z" fill="white"/>
<path d="M3.55005 29.0601V32.53H2.63V29.05H1.23999V28.3401H5.03003V29.05L3.55005 29.0601Z" fill="white"/>
<path d="M5.46997 32.5301V28.3402H7.84998C8.27835 28.2954 8.70985 28.3901 9.08008 28.6102C9.21185 28.7381 9.31137 28.8953 9.37048 29.0692C9.42959 29.243 9.44656 29.4285 9.42004 29.6102C9.44484 29.9103 9.38595 30.2114 9.25 30.4801C9.06751 30.6684 8.82173 30.7825 8.56006 30.8002C8.67006 30.789 8.78109 30.8025 8.88513 30.8399C8.98917 30.8774 9.08356 30.9376 9.16125 31.0162C9.23895 31.0949 9.29798 31.19 9.33411 31.2945C9.37024 31.399 9.38251 31.5104 9.37 31.6202V32.5401H8.45007V31.7801C8.45007 31.3501 8.20008 31.1302 7.71008 31.1302H6.38V32.5301H5.46997ZM6.38 30.4501H7.70007C7.91977 30.4743 8.14132 30.4252 8.33008 30.3102C8.42811 30.1308 8.47949 29.9296 8.47949 29.7252C8.47949 29.5208 8.42811 29.3196 8.33008 29.1402C8.15645 29.0339 7.95239 28.9881 7.75 29.0101H6.35999L6.38 30.4501Z" fill="white"/>
<path d="M13.0801 31.74H11.03L10.73 32.54H9.72998L11.3401 28.3501H12.72L14.35 32.54H13.35L13.0801 31.74ZM12.87 31.1501L12.03 28.97L11.2101 31.1501H12.87Z" fill="white"/>
<path d="M19.26 28.3501V32.53H17.7001L16.3201 30.23C16.2467 30.1233 16.1367 29.9235 15.99 29.6301L15.8401 29.3301L15.6801 29.03V32.53H14.76V28.3401H16.3201L17.5801 30.47C17.6901 30.65 17.82 30.8801 17.97 31.1501L18.15 31.49L18.3301 31.8401V31.5701V31.3V28.3L19.26 28.3501Z" fill="white"/>
<path d="M23.7001 29.5301H22.8001C22.8043 29.4465 22.7904 29.3631 22.7593 29.2854C22.7283 29.2078 22.6807 29.1377 22.6201 29.0801C22.3924 29.0004 22.1505 28.9696 21.9101 28.99C21.6222 28.9693 21.3332 29.0068 21.0601 29.1001C20.9884 29.1469 20.9315 29.2131 20.8961 29.291C20.8606 29.369 20.8481 29.4553 20.86 29.5401C20.86 29.8001 20.9101 29.96 21.0201 30.01C21.3723 30.1034 21.7357 30.1472 22.1 30.1402C22.5804 30.1199 23.059 30.2088 23.5001 30.4002C23.6242 30.5116 23.7186 30.6522 23.7745 30.8094C23.8304 30.9666 23.8461 31.1353 23.8201 31.3001C23.8487 31.495 23.8299 31.694 23.7656 31.8802C23.7012 32.0664 23.593 32.2345 23.4501 32.3701C22.9292 32.5885 22.3623 32.6743 21.8001 32.6201C21.2847 32.6658 20.766 32.5834 20.2901 32.3802C20.1446 32.2615 20.0328 32.1065 19.9661 31.9309C19.8994 31.7554 19.8801 31.5655 19.9101 31.3802V31.23H20.8001V31.3201C20.8001 31.6101 20.86 31.7901 20.97 31.8501C21.2938 31.9474 21.6334 31.9812 21.97 31.95C22.2383 31.9729 22.5083 31.9354 22.7601 31.8401C22.8701 31.7601 22.9301 31.5901 22.9301 31.3101C22.9402 31.2379 22.9337 31.1643 22.9112 31.095C22.8887 31.0257 22.8507 30.9624 22.8001 30.9099C22.6291 30.8162 22.4344 30.7746 22.24 30.7901H21.74C21.2351 30.8102 20.7323 30.7144 20.2701 30.51C20.0501 30.37 19.9501 30.0601 19.9501 29.5801C19.9222 29.3948 19.9424 29.2055 20.009 29.0303C20.0755 28.8551 20.1862 28.7001 20.3301 28.5801C20.8168 28.3779 21.3449 28.2956 21.8701 28.3401C22.3705 28.2982 22.8739 28.3735 23.3401 28.5601C23.4774 28.6561 23.5855 28.7882 23.6525 28.9417C23.7196 29.0952 23.7429 29.264 23.72 29.43L23.7001 29.5301Z" fill="white"/>
<path d="M25.38 29.02V30.1501H27.55V30.8201H25.38V32.53H24.4601V28.3401H27.66V29.01L25.38 29.02Z" fill="white"/>
<path d="M29.03 29.02V30.1001H31.3V30.6899H29.03V31.8701H31.4401V32.54H28.11V28.3501H31.42V29.02H29.03Z" fill="white"/>
<path d="M32.15 32.53V28.34H34.54C34.9651 28.2974 35.3926 28.3921 35.76 28.6101C35.8918 28.7379 35.9913 28.8952 36.0504 29.0691C36.1095 29.2429 36.1265 29.4284 36.1 29.6101C36.1298 29.9105 36.0708 30.2129 35.9301 30.4799C35.7476 30.6683 35.5017 30.7824 35.24 30.8C35.35 30.7888 35.4611 30.8024 35.5652 30.8398C35.6692 30.8772 35.7635 30.9374 35.8412 31.0161C35.9189 31.0947 35.978 31.1899 36.0142 31.2944C36.0503 31.3989 36.0626 31.5102 36.05 31.6201V32.54H35.13V31.78C35.13 31.35 34.88 31.1301 34.39 31.1301H33.03V32.53H32.15ZM33.0701 30.4499H34.39C34.6064 30.4719 34.8241 30.4229 35.01 30.31C35.1393 30.1423 35.1969 29.93 35.17 29.7199C35.1921 29.5175 35.1464 29.3137 35.04 29.1401C34.8615 29.037 34.6554 28.9914 34.4501 29.01H33.03L33.0701 30.4499Z" fill="white"/>
<path d="M38.76 29.0601V32.53H37.8401V29.05H36.4501V28.3401H40.2101V29.05L38.76 29.0601Z" fill="white"/>
<path d="M42.49 32.5299V28.34H44.87C45.3757 28.2847 45.8835 28.424 46.29 28.7299C46.445 28.9142 46.5611 29.1278 46.6316 29.3581C46.702 29.5883 46.7254 29.8305 46.7001 30.07C46.7669 30.754 46.653 31.4436 46.37 32.07C46.15 32.36 45.66 32.5099 44.9 32.5099L42.49 32.5299ZM43.41 31.86H44.72C45.16 31.86 45.4401 31.78 45.5701 31.6C45.7413 31.2388 45.8105 30.8375 45.77 30.4399C45.8104 30.0376 45.7485 29.6318 45.5901 29.2599C45.4801 29.0999 45.2 29.0099 44.78 29.0099H43.41V31.86Z" fill="white"/>
<path d="M48.17 28.3501V29.0901C48.1832 29.1891 48.1734 29.2897 48.1414 29.3843C48.1093 29.4788 48.056 29.5647 47.9854 29.6353C47.9148 29.7059 47.8288 29.7592 47.7343 29.7913C47.6397 29.8233 47.539 29.8332 47.4401 29.8201H47.29V29.53C47.56 29.53 47.6901 29.44 47.6901 29.25V29.1599H47.37V28.4001L48.17 28.3501Z" fill="white"/>
<path d="M51.9301 31.74H49.8401L49.54 32.54H48.54L50.15 28.3501H51.53L53.16 32.54H52.16L51.9301 31.74ZM51.72 31.1501L50.88 28.97L50.0601 31.1501H51.72Z" fill="white"/>
<path d="M53.61 32.5299V28.34H56.03C56.4581 28.3001 56.888 28.3945 57.26 28.61C57.3881 28.7402 57.4844 28.898 57.5416 29.0714C57.5989 29.2449 57.6155 29.4292 57.5901 29.61C57.6199 29.9104 57.5608 30.2128 57.42 30.4799C57.2376 30.6682 56.9916 30.7823 56.73 30.8C56.84 30.7888 56.9511 30.8023 57.0552 30.8398C57.1592 30.8772 57.2536 30.9374 57.3313 31.016C57.409 31.0947 57.468 31.1899 57.5042 31.2943C57.5403 31.3988 57.5526 31.5102 57.54 31.62V32.5399H56.62V31.7799C56.62 31.3499 56.37 31.13 55.88 31.13H54.5601V32.5299H53.61ZM54.53 30.4499H55.85C56.0664 30.4719 56.284 30.4228 56.47 30.31C56.5993 30.1422 56.6569 29.93 56.63 29.7199C56.652 29.5175 56.6063 29.3137 56.5 29.14C56.3214 29.0369 56.1154 28.9914 55.91 29.0099H54.53V30.4499Z" fill="white"/>
<path d="M60.2 30.31H62.3301V31.1501C62.3301 31.7501 62.2 32.14 61.94 32.32C61.3789 32.5456 60.7723 32.6347 60.17 32.58C59.5936 32.6412 59.0126 32.5186 58.51 32.2299C58.3474 32.0323 58.2272 31.8035 58.1567 31.5576C58.0862 31.3116 58.0668 31.0537 58.1 30.8C58.0626 30.2146 58.1201 29.6271 58.27 29.06C58.3222 28.9229 58.4038 28.7989 58.5093 28.697C58.6147 28.595 58.7413 28.5175 58.88 28.4699C59.336 28.3472 59.8084 28.2967 60.28 28.32C60.8436 28.2722 61.4107 28.3507 61.94 28.55C62.2 28.71 62.32 29.06 62.32 29.61H61.39C61.39 29.33 61.31 29.16 61.18 29.1C60.8862 29.0071 60.577 28.973 60.27 28.9999C59.9274 28.9629 59.5811 29.0216 59.27 29.1699C59.13 29.2832 59.06 29.5533 59.06 29.9799V30.9799C59.06 31.3999 59.13 31.66 59.28 31.78C59.5907 31.9297 59.9373 31.9886 60.28 31.9499C60.6207 31.9897 60.9659 31.938 61.28 31.8C61.41 31.71 61.48 31.4801 61.48 31.1201V30.9499H60.26L60.2 30.31Z" fill="white"/>
<path d="M63.8101 29.02V30.1001H66.0801V30.6899H63.8101V31.8701H66.23V32.54H62.89V28.3501H66.2101V29.02H63.8101Z" fill="white"/>
<path d="M71.41 28.3501V32.53H69.85L68.47 30.23C68.3528 30.0358 68.246 29.8356 68.15 29.6301L67.99 29.3301L67.8401 29.03V29.3101V32.53H66.92V28.3401H68.48L69.74 30.47C69.85 30.65 69.98 30.8801 70.13 31.1501L70.3101 31.49L70.5 31.8401V28.3401L71.41 28.3501Z" fill="white"/>
<path d="M74.1901 29.0601V32.53H73.27V29.05H71.87V28.3401H75.64V29.05L74.1901 29.0601Z" fill="white"/>
<path d="M78.91 8.78007L72.44 10.5401C71.9998 10.6594 71.5301 10.599 71.1344 10.3721C70.7387 10.1452 70.4494 9.77037 70.3301 9.33012C70.2107 8.88986 70.2711 8.42015 70.498 8.02445C70.7249 7.62876 71.0998 7.33938 71.54 7.22001L78.01 5.47001C78.4489 5.35033 78.9174 5.40942 79.3128 5.63432C79.7083 5.85922 79.9985 6.23156 80.12 6.66996C80.2393 7.11022 80.1789 7.57993 79.952 7.97563C79.7251 8.37132 79.3503 8.6607 78.91 8.78007Z" fill="white"/>
<path d="M77.5601 12.6401L76.8101 7.53996C76.7703 7.31302 76.7764 7.0804 76.8282 6.85588C76.88 6.63136 76.9764 6.41963 77.1116 6.23308C77.2469 6.04653 77.4182 5.88899 77.6155 5.76995C77.8128 5.6509 78.032 5.57266 78.2601 5.53996C78.4827 5.50744 78.7096 5.51907 78.9277 5.57439C79.1458 5.6297 79.3508 5.72753 79.5311 5.86223C79.7113 5.99693 79.8631 6.16604 79.978 6.35955C80.0928 6.55305 80.1683 6.76718 80.2001 6.98992L80.9601 12.09C80.9941 12.3134 80.9834 12.5412 80.9288 12.7604C80.8741 12.9797 80.7766 13.186 80.6418 13.3674C80.5069 13.5487 80.3375 13.7014 80.1432 13.8168C79.949 13.9323 79.7338 14.0082 79.5101 14.04C79.0667 14.1068 78.6147 13.998 78.2504 13.7365C77.8862 13.475 77.6385 13.0816 77.5601 12.6401Z" fill="white"/>
</g>
</svg>
