<svg width="171" height="163" viewBox="0 0 171 163" fill="none" xmlns="http://www.w3.org/2000/svg">
<path d="M2.42986 47.7C2.08986 48.43 1.73986 49.16 1.42986 49.92C1.47461 49.2463 1.57496 48.5773 1.72987 47.92L2.02986 46.59C2.14986 45.99 2.07986 46 1.52986 47.03C1.74986 47.19 1.67986 47.83 1.46986 48.71C1.25986 49.59 1.02986 50.71 0.749864 51.89C0.469864 53.07 0.35986 54.21 0.26986 55.1C0.17986 55.99 0.269867 56.65 0.549867 56.76L0.169862 58.3101C0.229862 57.8601 0.169862 57.7801 0.239862 57.3101C-0.0740945 58.2136 -0.0740945 59.1965 0.239862 60.1C0.374436 60.5035 0.471514 60.9186 0.529862 61.34C0.649972 62.0636 0.706851 62.7965 0.699861 63.53C0.639861 64.9 0.699862 65.87 0.419862 64.95C0.619862 65.95 0.78986 66.95 1.01986 67.95C1.24986 68.95 0.939861 68.64 0.809861 67.76C1.11986 69.29 1.36986 70.8301 1.80986 72.3101C1.96986 72.6101 2.19986 73.11 2.42986 73.61C2.65986 74.11 2.92986 74.6099 3.09986 74.9399C3.31986 76.0999 2.80986 74.42 2.77986 74.74C3.13986 75.52 3.43986 76.32 3.83986 77.08C3.90986 77.61 3.68987 77.41 3.36987 76.86C3.00634 76.1128 2.70531 75.3369 2.46986 74.54C2.28986 77.15 3.23986 76.54 4.85986 81.48C4.47986 80.76 4.03986 80.0701 3.71986 79.3101C3.81986 81.0001 4.80986 82.6701 5.88986 85.3101C5.81986 84.9701 5.31987 83.6399 5.07987 82.6899C4.83987 81.7399 4.87986 81.16 5.59986 82.36C6.02816 83.3848 6.5933 84.3469 7.27986 85.22C6.96986 85.43 7.83986 86.62 8.84986 88.15L8.38986 88.3199C9.04582 89.1079 9.79841 89.8102 10.6299 90.41C11.9499 92.17 11.9799 92.74 12.0699 93.36C14.3399 96.1 10.8899 91.15 13.7399 94.22C14.1999 94.8 14.6399 95.3201 15.0899 95.8101C15.5399 96.3001 16.0199 96.72 16.5099 97.16C17.6234 98.1663 18.7883 99.1142 19.9999 100C21.4499 101.45 19.5299 99.9999 19.9999 100.57L21.6499 101.43C21.9899 101.71 21.7999 101.71 21.7099 101.71C22.9999 102.54 22.0799 101.46 24.0599 102.79C24.4899 102.79 25.3299 103.66 26.4699 104.67C27.6259 105.796 28.9827 106.694 30.4699 107.32C31.0199 107.82 30.0199 107.39 30.1099 107.67C31.9399 108.57 32.7399 108.91 33.4699 109.21C34.4491 109.622 35.4506 109.98 36.4699 110.28C37.2599 110.79 38.0499 111.28 38.8599 111.81C37.9999 111.2 38.2199 111.08 38.9199 111.21C39.6199 111.34 40.8299 111.65 41.9199 111.96C41.3299 111.51 40.8299 111.11 40.4799 110.88C41.6199 111.29 42.7499 111.74 43.9199 112.09C44.2899 112.33 43.9199 112.35 43.2599 112.31L43.9199 112.45C45.0699 113.11 44.3399 113.11 43.3599 113C42.9899 112.74 42.6099 112.5 42.2599 112.23C41.3199 112.12 40.4099 112.06 40.4599 112.4C40.8562 112.495 41.2441 112.622 41.6199 112.78C41.3699 112.78 41.1999 112.78 41.2899 112.84C41.6339 112.998 42.0026 113.096 42.3799 113.13L42.9499 113.94L43.2199 113.82L45.4099 114.89L47.6299 115.89C51.0899 116.54 54.1699 116.72 59.5099 117.77C58.0999 117.83 59.0699 118.32 58.8999 118.77C57.5599 117.96 54.7199 117.94 52.0199 117C53.4199 117.5 53.0199 117.62 52.6599 117.58C54.3399 117.9 55.9999 118.23 57.6599 118.49C57.4599 118.83 58.6599 119.02 59.9099 119.49C59.0899 118.55 63.7099 119.82 65.7899 119.92C65.8699 120.18 65.3299 120.4 62.8699 119.83C65.4999 120.95 66.5599 119.59 69.1599 120.51C68.7724 120.405 68.3687 120.375 67.9699 120.42C69.4199 120.42 72.8799 121.01 72.0299 121.14L71.4199 121.07L73.1199 121.31L75.0699 121.49C76.4399 121.61 77.8799 121.71 79.2199 121.72C81.8899 121.81 84.1299 121.61 84.4299 121.31C84.2423 121.663 83.9711 121.966 83.6399 122.19C86.0799 121.55 88.4899 120.81 90.8499 119.99C90.2299 120.56 92.7499 121.78 89.3699 122.21C90.7836 122.3 92.203 122.226 93.5999 121.99C92.9299 121.99 91.8999 121.3 92.7999 121.2C94.3986 121.483 96.0166 121.644 97.6399 121.68C96.6399 121.68 97.6399 120.68 99.2099 120.56C98.9799 120.71 99.4299 121.39 98.8699 121.56L100.77 120.91L101.71 120.58C102.01 120.47 102.18 120.37 102.47 120.26C102.07 120.4 102.08 120.58 102.19 120.75C102.248 120.846 102.319 120.933 102.4 121.01C102.4 121.01 102.49 121.07 102.52 121.13L102.61 121.32C102.61 121.25 102.61 121.32 102.78 121.32L103.04 121.51L103.6 121.94C104.41 122.56 105.35 123.29 105.78 123.57L104.59 122.43C108 125.15 108.75 124.07 112.18 126.72C111.66 126.54 110.5 126.79 112.18 128.21C115.023 128.799 117.752 129.846 120.26 131.31L120.7 131.96L123.21 133.51C120.032 132.383 116.917 131.084 113.88 129.62C115.06 130.77 114.06 130.13 116.03 131.62C116.58 132.33 114.75 131.1 114.17 130.62L118.62 134.19C118.72 133.63 122.4 136.43 122.48 135.96L117.23 132.63C117.34 132.08 120.95 133.63 124.11 136.17C124.81 136.95 122.95 136.42 122.92 136.61C124.158 137.279 125.324 138.073 126.4 138.98L124.87 138.16C126.54 139.67 128.19 139.85 130.06 141.87C130.78 142.46 131.89 144.07 132.19 143.93C131.33 142.55 132.19 140.93 133.24 141.22C133.47 141.45 136.81 144.61 137.49 145.48C138.44 146.77 135 144.95 135.81 146.05C135.94 145.97 136.72 146.35 137.03 146.52C137.75 147.2 136.45 146.61 138.19 147.84C138.78 147.65 141.63 150.48 139.25 148.1C141.01 149.24 140.96 149.52 142.93 150.97C142.51 150.24 145.36 151.39 147.12 152.51C146.95 152.51 147.22 152.96 147.36 153.15C148.2 153.81 148.95 154.38 149.65 154.92L151.65 156.51C153 157.57 154.48 158.73 156.24 159.92C156.47 160.15 157.04 160.59 157.48 160.92C157.92 161.25 158.25 161.52 158.04 161.54C158.579 161.6 159.098 161.777 159.56 162.06C160.67 162.74 160.15 162.49 159.63 162.29C159.11 162.09 158.53 161.87 159.48 162.52C159.37 162.32 159.85 162.46 160.48 162.65C160.65 162.65 160.81 162.79 161.04 162.65C161.044 162.412 160.993 162.175 160.89 161.96C160.72 161.52 160.52 161.08 160.32 160.67C160.22 160.67 160.27 160.84 160.4 161.17L160.63 161.75C160.68 161.87 160.71 161.99 160.76 162.11C160.81 162.23 160.76 162.24 160.76 162.31C160.76 162.38 160.65 162.39 160.6 162.38C159.6 162.08 158.81 161.61 158.22 161.38C158.04 161.13 158.01 160.95 158.13 160.9C158.166 160.889 158.204 160.889 158.24 160.9H158.32C158.377 160.831 158.448 160.776 158.53 160.74L158.83 160.59C158.867 160.577 158.901 160.557 158.93 160.53C158.946 160.522 158.96 160.509 158.969 160.493C158.978 160.477 158.982 160.458 158.98 160.44C158.956 160.374 158.926 160.31 158.89 160.25C158.763 160.003 158.623 159.763 158.47 159.53L156.82 157.01C155.45 154.84 157.13 156.71 156.77 156.24C156.327 155.387 155.823 154.569 155.26 153.79C154.934 153.352 154.569 152.943 154.17 152.57C153.979 152.389 153.805 152.192 153.65 151.98C153.46 151.74 153.26 151.48 153.06 151.17C152.525 150.351 152.054 149.491 151.65 148.6C150.98 146.6 152.3 148.11 152.33 147.6C152.935 148.52 153.466 149.486 153.92 150.49C154.31 151.32 154.66 152.14 155.03 152.76L154.14 150.83C154.871 151.758 155.498 152.764 156.01 153.83C155.735 153.094 155.401 152.381 155.01 151.7C154.47 150.7 153.77 149.47 153.01 148.17C151.51 145.56 149.81 142.63 148.74 140.48C148.19 139.81 147.33 138.62 147.54 139.3L148.36 140.57C148.78 141.94 146.52 138.34 147.36 140.07C145.839 138.201 144.5 136.192 143.36 134.07L143.48 133.37C143.751 134.232 144.175 135.038 144.73 135.75C143.95 134.82 143.03 131.65 141.85 130.83L142.59 132.72C141.055 130.905 139.68 128.962 138.48 126.91C138.68 128.13 138.82 127.38 139.28 129.2C139.06 127.52 142.57 134.8 141.89 132.29C142.3 134.19 143.29 135.17 144.07 137.52C144.16 137.38 143.88 136.64 144.9 138.52C145.024 138.622 145.141 138.732 145.25 138.85L145.31 138.98V138.87C145.39 138.94 145.38 138.94 145.31 138.87C145.148 138.537 145.03 138.184 144.96 137.82C145.8 138.55 147.51 141.48 148.24 142.37C148.82 143.5 147.82 142 148.03 142.68L149.13 144.02C148.92 144.34 150.34 147.2 148.67 144.73L150 147.05C150.673 148.608 151.493 150.098 152.45 151.5C152.605 151.801 152.778 152.091 152.97 152.37L153.26 152.77L153.33 152.86H153.38C153.61 153.03 153.53 152.98 153.38 152.86C153.67 153.23 154.01 153.67 154.38 154.21L154.25 154.15C154.55 154.75 155.25 155.65 155.84 156.73C155.874 156.795 155.904 156.862 155.93 156.93C155.93 157.03 155.86 156.99 155.83 156.99C155.728 156.956 155.63 156.909 155.54 156.85C155.312 156.719 155.092 156.575 154.88 156.42C154.348 156.018 153.856 155.565 153.41 155.07C152.851 154.841 152.344 154.501 151.92 154.07C151.92 153.98 151.92 153.81 151.81 153.63C150.31 152.63 147.67 150.21 146.87 149.99C145.79 148.22 140.02 144.65 137.59 142.64L137.27 142.87C135.55 141.55 133.83 140.38 131.59 138.87L131.52 139.24C129.52 138.06 126.91 135.44 123.97 133.24C124.519 133.521 125.016 133.893 125.44 134.34C122.44 131.08 117.74 129.17 114.9 126.34C114.202 125.934 113.558 125.443 112.98 124.88C113.046 124.93 113.116 124.973 113.19 125.01L113 125L112 124C112.255 124.294 112.525 124.574 112.81 124.84C112.2 124.39 111.25 123.72 110.29 123.1L110.12 122.52L109.9 122.37C109.09 121.59 109.08 121.97 109.4 122.54C108.9 122.25 108.4 121.99 108.06 121.81C107.69 120.81 105.56 120.18 104.93 118.94C104.388 118.664 103.867 118.35 103.37 118C102.894 118.027 102.422 118.097 101.96 118.21L100.81 118.43C99.4399 118.7 98.0899 118.98 97.8099 119.33C97.8099 119.25 97.4299 119.24 98.0399 119.18C96.822 119.182 95.6069 119.296 94.4099 119.52L93.8499 119.1C92.9499 119.37 92.0499 119.62 91.1399 119.87C89.4599 119.65 88.7699 119.5 90.4099 119.1C86.4099 119.75 87.1899 119.4 83.7799 119.89L83.9499 119.59C83.3499 119.59 82.5499 119.67 81.8199 119.73C81.2319 119.799 80.6362 119.766 80.0599 119.63C78.7099 119.28 75.3599 119.08 71.5099 118.57C69.5799 118.35 67.5099 117.99 65.5099 117.63C63.6339 117.258 61.7782 116.791 59.9499 116.23C61.0599 117.38 56.9499 115.12 56.4799 115.66C56.1499 115.35 55.2499 114.98 56.3799 115.1C54.9801 114.801 53.6059 114.393 52.2699 113.88C51.1852 113.472 50.0582 113.187 48.9099 113.03C48.5999 112.7 49.7199 113.03 49.4199 112.76C48.924 112.693 48.4436 112.541 47.9999 112.31C47.7099 112.07 48.5499 112.31 49.0999 112.43C45.7099 111.26 45.1599 111.63 44.6899 112.11C43.5394 111.337 42.2309 110.832 40.8599 110.63C40.3599 110.19 39.4799 109.57 41.5599 110.43C40.3599 109.97 34.7599 106.77 34.4399 107.08C33.8622 106.685 33.2456 106.35 32.5999 106.08L30.0899 104.5C29.4599 104.07 28.8299 103.64 27.6599 102.88L28.2599 103.38C26.9999 103.26 26.2599 102.15 24.4299 100.86H24.5199C20.7799 97.28 22.5999 99.65 19.1599 95.86V96.3199C18.7199 96.4299 17.9899 95.55 17.0899 94.41C16.6499 93.84 16.1999 93.16 15.7099 92.54C15.2199 91.92 14.7099 91.29 14.1899 90.76L14.6999 91.76C14.0073 90.9905 13.4708 90.0939 13.1199 89.12C12.8013 88.133 12.3964 87.176 11.9099 86.26C11.7699 85.94 12.3199 86.64 12.6499 87C12.1199 86.1 11.8599 85.62 11.6499 85.39C11.4399 85.16 11.3899 85.17 11.3099 85.22C11.2299 85.27 11.0099 85.57 10.1199 84.29C10.0499 83.66 11.0099 84.59 10.0399 82.77C9.87986 82.27 8.92986 81.09 8.03986 79.59C7.81986 79.21 7.57987 78.8299 7.36987 78.4399C7.15987 78.0499 6.97987 77.62 6.79987 77.22C6.44312 76.487 6.1971 75.7052 6.06986 74.9C6.06986 75.55 6.06986 76.22 5.49986 74.9C5.28616 74.28 5.11903 73.6449 4.99986 73L4.64987 70.85C4.49987 70.13 4.45986 69.41 4.31986 68.76C4.20287 68.1744 4.02871 67.6017 3.79987 67.05C3.79987 66.76 3.85987 66.65 3.90987 66.63C3.49987 64.99 3.22986 61.19 3.01986 60.15C3.64986 59.39 3.62986 56.78 3.92986 54.36C4.00986 53.75 4.05986 53.15 4.13986 52.61C4.21986 52.07 4.35986 51.61 4.46986 51.15C4.68986 50.32 4.90986 49.8 5.19986 49.9L5.96986 47.42C6.25986 46.61 6.59987 45.81 6.89987 45L6.95986 45.17C7.62986 43.65 8.12987 42.6499 8.39987 41.8199C8.66455 41.1679 8.88832 40.4999 9.06986 39.8199C9.50986 39.1799 9.32986 39.7299 9.34986 39.8199C9.96986 38.8199 10.5799 38.04 11.0099 37.37C11.4399 36.7 11.8199 36.18 12.1699 35.66C12.5199 35.14 12.8199 34.66 13.1699 34.01L14.5199 31.84L15.0699 31.75C15.3895 31.2972 15.7584 30.8814 16.1699 30.51C16.7299 29.95 17.4399 29.24 18.2899 28.51C19.1399 27.78 20.0299 26.93 20.9799 26.12L22.3699 24.85C22.8499 24.44 23.2999 24.03 23.7399 23.6C23.7399 23.67 23.6899 23.7899 23.4299 24.0699C25.617 22.1252 28.0272 20.4468 30.6099 19.0699C31.8499 18.4099 32.9599 17.75 33.8599 17.17C34.6028 16.7799 35.2355 16.209 35.6999 15.51C36.6999 14.82 37.6999 14.2199 38.6999 13.5699C34.4799 15.5699 39.0599 12.73 37.2399 13.39C38.8499 12.45 41.7399 11.72 39.6999 12.71L39.3499 12.8C39.1199 13.29 40.4699 12.8 41.8799 12.14C43.2899 11.48 44.8199 10.97 44.8799 11.2C53.1739 7.98154 61.8549 5.86686 70.6999 4.91003L69.6999 4.48999L72.6999 4.14001C73.4999 4.14001 73.7899 4.44005 71.6999 4.68005C72.9353 4.66955 74.1561 4.4111 75.2899 3.92004C79.4799 3.76004 73.7199 4.69998 74.9999 4.59998L76.7299 4.40002H76.3299C77.6371 3.93785 79.0133 3.70108 80.3999 3.69995C82.0299 3.69995 81.2399 3.98998 81.8799 3.97998C81.8799 3.97998 82.0999 4.03998 82.8799 3.97998C84.1399 3.97998 85.3899 3.97998 86.6499 3.97998C86.1499 3.81998 85.6499 3.69006 85.1399 3.56006C86.8199 3.30006 88.6999 3.61997 86.9499 3.08997C88.0368 3.33772 89.1455 3.47843 90.2599 3.51001C91.7199 3.65001 93.4499 3.74 95.1499 3.87C97.6337 4.02116 100.107 4.30824 102.56 4.72998C105.075 4.80305 107.575 5.13819 110.02 5.72998C109.34 5.50998 109.02 4.92 111.44 5.5C110.34 6.27 115.78 6.96 117.44 8.25C115.88 7.25 124.17 10.25 121.71 8.73999C123.64 9.48999 121.71 9.13 123.11 9.88C127.88 11.14 133.05 14.08 138.33 16.95C138.48 16.88 137.69 16.2201 138.92 16.6801L141.3 18.9C142.3 19.49 142.63 18.9 144.19 20.46C143.99 20.2 143.71 19.8 144.4 20.22C146.72 22.06 149.07 23.9099 151.28 25.9399C153.538 27.9328 155.65 30.085 157.6 32.38C161.61 36.881 164.48 42.2789 165.97 48.12C165.72 46.52 166.07 47.5201 166.46 48.6801C166.27 47.9101 166.77 48.6 166.9 48.39C167.08 49.21 167.27 50.02 167.37 50.85C167.47 51.68 167.65 52.4899 167.69 53.3199C168.133 54.2617 168.387 55.2807 168.44 56.3199C168.474 57.2566 168.646 58.1832 168.95 59.0699C168.907 58.5428 168.833 58.0187 168.73 57.5C169.51 59.57 169.73 54.4 170.34 54.58C170.068 53.9225 169.896 53.2282 169.83 52.52C169.72 51.74 169.6 50.88 169.47 49.98C169.239 48.0101 168.554 46.1206 167.47 44.46C167.27 43.58 167.97 45.08 167.95 44.58C167.075 43.3214 166.363 41.9573 165.83 40.52C165.898 40.5817 165.962 40.6485 166.02 40.72C164.45 37.89 163.29 35.9 161.94 33.91L160.94 32.38C160.57 31.88 160.18 31.38 159.76 30.8C158.96 29.67 157.93 28.53 156.76 27.15C156.76 27.36 156.83 27.58 156.87 27.79C156.276 27.1584 155.721 26.4905 155.21 25.79C154.38 25.36 155.15 26.13 155.93 26.92C156.71 27.71 157.43 28.58 156.68 28.17C156.24 27.17 154.33 25.17 152.34 23.47C150.35 21.77 148.34 20.13 148.01 19.4C146.09 17.98 148.33 20.15 146.41 18.73C146.29 18.54 146.16 18.3601 146.03 18.1801L145.36 18.08C144.1 17.17 143.59 16.5001 143.65 16.3101C143.95 16.5401 144.57 16.87 144.92 17.08C144.468 16.7027 143.998 16.349 143.51 16.02C142.96 15.68 142.37 15.34 141.82 15.02C140.72 14.38 139.73 13.9 139.44 13.7C140.1 14.1 140.73 14.53 141.36 14.97C135.71 11.74 128.52 8.25997 122.42 6.71997L122.82 7.03003C118.19 5.88003 119.25 5.64996 114.14 4.45996H114.34C113.05 4.32771 111.771 4.11067 110.51 3.81006C111.85 3.88006 108.15 2.94996 109.9 3.07996C108.698 2.84381 107.475 2.7266 106.25 2.72998C105.461 2.83545 104.666 2.89227 103.87 2.90002L103.14 2.5C101.85 2.68287 100.54 2.68287 99.2499 2.5C101.4 2.5 97.6499 1.86998 100.06 1.84998C94.6499 0.649976 91.9199 1.78998 89.4399 0.849976C88.1799 1.20998 89.3599 1.33002 90.6799 1.40002C91.9999 1.47002 93.4599 1.53996 92.7499 1.57996C93.9099 1.91996 90.6599 1.99005 88.9499 1.93005C88.0434 1.83817 87.1488 1.65383 86.2799 1.38C84.7383 1.05887 83.1633 0.927884 81.5899 0.98999C82.0299 0.98999 82.0499 0.930044 82.4899 0.920044C80.8299 0.760044 79.2799 1.34 77.2299 1.13C76.1399 1.69 74.6099 1.33996 74.3399 1.95996C75.6799 1.80996 77.0099 1.58999 78.3399 1.48999C77.1999 1.60999 76.1199 1.95996 74.8499 2.20996C73.336 2.53837 71.7973 2.73917 70.2499 2.81006C70.9387 2.54155 71.6475 2.32755 72.3699 2.17004C71.2499 2.17004 70.2799 2.55002 69.1199 2.52002C69.3599 1.89002 73.9699 1.75 76.3799 1.13C75.1699 0.980005 71.7899 1.99998 72.9499 1.22998C71.2899 2.22998 68.6099 1.65004 65.7599 2.79004L65.8899 2.40002C65.4299 2.53002 64.4899 2.86003 63.6399 3.03003C64.1299 2.78003 64.6399 2.51003 65.1099 2.28003C62.7999 3.12003 60.4399 2.82999 58.2099 3.60999C62.9699 2.47999 59.3699 3.75999 61.4399 3.60999C55.7199 5.44999 57.8399 3.39997 51.4399 5.46997C52.2899 5.11997 54.7899 4.7 53.4399 5.25C52.2146 5.56569 50.9727 5.81273 49.7199 5.98999C45.5199 7.52999 50.4799 6.08994 48.7199 6.93994C47.1499 7.04994 46.7199 7.82003 44.9399 8.66003L44.7999 8.32996C39.9999 10.04 43.7999 9.48997 39.5499 11.09L41.0999 9.83997L38.9799 10.9399L39.2599 10.36C38.1299 11.02 37.4099 11.49 36.6499 11.87C35.8899 12.25 35.1099 12.56 33.9699 13.15C34.6099 13.09 33.9699 13.88 32.0399 14.99C30.6299 15.6 32.5999 14.24 29.8999 15.99C30.4969 15.1913 31.3404 14.6115 32.2999 14.34C32.3699 14.17 32.8099 13.8 32.8799 13.63C31.9898 13.9822 31.1413 14.4315 30.3499 14.97C29.5199 15.5 28.7499 15.97 28.2699 16.33C28.6233 16.1036 28.9945 15.9063 29.3799 15.74C28.1399 16.68 26.9699 17.74 25.7899 18.74C25.1199 19.07 25.5199 18.62 25.9299 18.21C25.1799 18.78 24.7599 19.32 23.6699 20.21C23.7799 19.77 23.5299 19.58 25.0299 18.29C23.9099 19.29 22.7499 20.21 21.6899 21.29C21.3799 21.38 19.6899 22.47 20.0699 22.02C18.0699 23.52 15.8899 26.48 13.5699 28.8C13.3788 29.161 13.1436 29.4969 12.8699 29.8C10.8699 32.13 8.86986 34.11 7.24986 37.48C6.72986 37.98 6.24986 38.48 5.74986 39.04C4.45986 41.64 7.67987 36.8799 5.57987 41.1899C4.26987 44.3199 4.57987 42.1899 3.97987 43.1899C3.76987 44.0299 3.51986 45.19 3.13986 46.47C2.78165 47.9055 2.32729 49.3154 1.77986 50.6899C1.86986 50.1699 1.96986 49.69 2.08986 49.28C2.20986 48.87 2.29986 48.17 2.42986 47.7ZM5.56986 82.3C5.05062 81.6179 4.64846 80.8541 4.37986 80.04C5.08986 80.57 5.16986 81.19 5.56986 82.3ZM46.3099 114.48C45.5914 114.333 44.9107 114.04 44.3099 113.62C44.9916 113.87 45.6593 114.157 46.3099 114.48ZM151.31 148.75H151.36C151.93 150.15 151.71 149.67 151.26 148.75H151.31ZM149.9 146.01C149.7 145.77 149.66 145.81 149.69 145.95C150.055 146.384 150.361 146.865 150.6 147.38C150.463 146.867 150.206 146.394 149.85 146L149.9 146.01ZM82.1699 3.83997L81.5699 3.77002C82.8499 3.63002 82.4799 3.73997 82.1199 3.83997H82.1699Z" fill="white"/>
<path d="M27.279 53.4545L25.9486 34.2853L31.2612 33.9166L39.7974 45.8992L37.0042 46.0931L43.5843 33.0614L48.8969 32.6927L50.282 51.8581L44.3943 52.2667L43.625 41.9739L44.5561 41.9093L40.0574 50.8342L37.2094 51.0318L31.3019 42.8291L32.4521 42.7493L33.1667 53.0459L27.279 53.4545ZM56.8888 57.0129C56.0673 57.07 55.2186 57.0004 54.3428 56.8044C53.4866 56.6254 52.7889 56.3528 52.2498 55.9866L54.0091 51.5994C54.3359 51.8152 54.6961 51.9829 55.0896 52.1023C55.5014 52.2205 55.8899 52.2669 56.255 52.2415C56.8027 52.2035 57.2143 52.0557 57.49 51.7981C57.7669 51.5588 57.9808 51.2046 58.1317 50.7355L58.6513 49.1035L59.0476 48.4706L62.9923 35.9245L68.8526 35.5178L63.7515 51.226C63.2989 52.6332 62.734 53.7456 62.057 54.563C61.3982 55.3792 60.6323 55.9735 59.7593 56.346C58.9045 56.7171 57.9477 56.9395 56.8888 57.0129ZM58 52.0104L50.3954 36.7987L56.7486 36.3578L62.0493 47.7119L58 52.0104ZM71.0301 50.4182L69.6998 31.249L75.0124 30.8803L85.5709 41.8695L83.1063 42.0406L82.2967 30.3747L88.5951 29.9376L89.9255 49.1068L84.6129 49.4755L74.0544 38.4863L76.519 38.3152L77.3286 49.981L71.0301 50.4182ZM93.0394 48.8907L91.7091 29.7215L98.1718 29.273L99.5022 48.4422L93.0394 48.8907ZM106.719 47.9413L105.747 33.923L100.188 34.3087L99.8436 29.3467L117.36 28.1311L117.704 33.0931L112.146 33.4789L113.118 47.4972L106.719 47.9413ZM117.325 47.2053L124.305 27.6491L130.596 27.2125L140.21 45.617L133.594 46.0762L126.36 30.558L128.854 30.3849L123.833 46.7536L117.325 47.2053ZM122.03 43.5548L123.337 38.8324L132.068 38.2264L134.015 42.723L122.03 43.5548Z" fill="white"/>
<path d="M52.7413 76.2809C51.0252 76.4 49.478 76.1772 48.0997 75.6125C46.7214 75.0477 45.6083 74.2078 44.7604 73.0926C43.9296 71.9579 43.4615 70.6329 43.3564 69.1176C43.2512 67.6023 43.5323 66.2345 44.1998 65.0141C44.8855 63.7925 45.8718 62.8068 47.1589 62.0571C48.4461 61.3074 49.9477 60.873 51.6638 60.7539C53.4894 60.6272 55.0776 60.9114 56.4282 61.6064C57.7789 62.3015 58.7489 63.3257 59.3381 64.679L54.7092 67.3666C54.3507 66.6944 53.9325 66.219 53.4546 65.9403C52.9949 65.6603 52.5003 65.5387 51.9709 65.5755C51.5145 65.6072 51.093 65.7465 50.7066 65.9934C50.3384 66.2391 50.0509 66.5893 49.8439 67.0439C49.654 67.479 49.5818 68.0251 49.6274 68.6824C49.6731 69.3396 49.8206 69.8797 50.0701 70.3026C50.3378 70.7243 50.671 71.0314 51.0696 71.2239C51.4864 71.4151 51.9231 71.4948 52.3795 71.4632C52.9089 71.4264 53.3819 71.2377 53.7985 70.8969C54.2334 70.5549 54.582 70.0262 54.8442 69.3109L59.7999 71.3334C59.4033 72.7551 58.5841 73.9034 57.3424 74.7784C56.1007 75.6534 54.567 76.1542 52.7413 76.2809ZM60.4517 66.0983L62.2005 58.3209L63.3324 61.6753C62.284 61.7481 61.4046 61.5094 60.6944 60.9593C59.9829 60.3911 59.5908 59.5828 59.518 58.5344C59.444 57.4678 59.7201 56.6041 60.3463 55.9431C60.9893 55.2627 61.826 54.8868 62.8563 54.8153C63.8867 54.7438 64.7582 55.0011 65.471 55.5874C66.2005 56.1543 66.6023 56.9711 66.6763 58.0376C66.6964 58.3268 66.6894 58.6179 66.6552 58.9109C66.6391 59.2026 66.5732 59.5614 66.4575 59.9872C66.3404 60.3949 66.1431 60.9535 65.8654 61.663L64.2477 65.8348L60.4517 66.0983ZM74.9594 62.4759L83.4192 61.8888L83.7391 66.4983L75.2793 67.0854L74.9594 62.4759ZM75.8862 69.5498L85.3764 68.8912L85.7114 73.7176L69.9306 74.8128L68.6133 55.8325L84.0416 54.7618L84.3766 59.5882L75.2389 60.2224L75.8862 69.5498ZM95.2819 73.4894C93.6911 73.5998 92.1421 73.5256 90.6347 73.267C89.1274 73.0083 87.8746 72.623 86.8764 72.111L88.6134 67.3043C89.5536 67.7658 90.5864 68.121 91.7116 68.3698C92.8537 68.5993 93.9489 68.6777 94.9974 68.6049C95.612 68.5623 96.0885 68.4929 96.4269 68.3968C96.7822 68.2813 97.0361 68.1456 97.1888 67.9897C97.3402 67.8157 97.4084 67.6203 97.3933 67.4033C97.3695 67.0599 97.1609 66.8019 96.7674 66.6294C96.374 66.4569 95.8566 66.3294 95.2152 66.2467C94.5905 66.1448 93.9026 66.0472 93.1514 65.954C92.399 65.8428 91.6344 65.687 90.8576 65.4866C90.0989 65.2849 89.3888 64.9982 88.7273 64.6263C88.0838 64.2532 87.5491 63.7454 87.1231 63.103C86.6958 62.4424 86.447 61.606 86.3768 60.5937C86.2952 59.4187 86.5466 58.3296 87.1308 57.3264C87.7319 56.3038 88.6632 55.4582 89.9245 54.7894C91.204 54.1194 92.8198 53.7166 94.7721 53.5811C96.0555 53.4921 97.3303 53.5398 98.5964 53.7244C99.8625 53.909 101.012 54.247 102.045 54.7383L100.442 59.5086C99.4692 59.1038 98.5319 58.8147 97.6298 58.6412C96.7458 58.4664 95.8881 58.4078 95.0566 58.4656C94.442 58.5082 93.9577 58.5963 93.6037 58.7299C93.2497 58.8634 92.9976 59.0262 92.8474 59.2183C92.7154 59.4091 92.6569 59.6129 92.6719 59.8298C92.6945 60.1552 92.9025 60.4042 93.2959 60.5767C93.6881 60.7311 94.1958 60.8502 94.8192 60.9341C95.4607 61.0167 96.157 61.1046 96.9082 61.1978C97.6774 61.2897 98.4414 61.4365 99.2001 61.6382C99.9588 61.8398 100.66 62.1272 101.303 62.5003C101.965 62.8721 102.509 63.3793 102.935 64.0218C103.361 64.6643 103.608 65.4826 103.677 66.4768C103.757 67.6337 103.497 68.7234 102.896 69.746C102.312 70.7492 101.39 71.5942 100.129 72.2811C98.8681 72.9499 97.2522 73.3526 95.2819 73.4894ZM109.852 72.0423L108.879 58.0239L103.321 58.4097L102.976 53.4477L120.492 52.2321L120.837 57.1941L115.278 57.5798L116.251 71.5982L109.852 72.0423Z" fill="white"/>
<path d="M44.4776 100.898L43.495 86.7398L37.8812 87.1294L37.5334 82.118L55.2238 80.8902L55.5716 85.9016L49.9578 86.2912L50.9403 100.449L44.4776 100.898ZM68.2257 99.6854C66.6711 99.7933 65.2171 99.649 63.8637 99.2525C62.5283 98.8547 61.3508 98.2462 60.3313 97.427C59.3105 96.5896 58.487 95.5842 57.8606 94.4107C57.2523 93.236 56.8986 91.9346 56.7995 90.5065C56.6992 89.0604 56.8697 87.7226 57.3111 86.4932C57.7694 85.2445 58.4468 84.144 59.3434 83.1917C60.2387 82.2214 61.3202 81.447 62.5878 80.8687C63.8735 80.289 65.2846 79.9459 66.8211 79.8392C68.3757 79.7313 69.8207 79.8763 71.1561 80.274C72.4915 80.6717 73.6696 81.2893 74.6903 82.1266C75.7099 82.9459 76.5238 83.9429 77.132 85.1176C77.7571 86.273 78.1199 87.5738 78.2202 89.0199C78.3193 90.448 78.1398 91.7864 77.6815 93.0351C77.2414 94.2827 76.5736 95.3916 75.6783 96.3619C74.7817 97.3141 73.6996 98.0794 72.4319 98.6578C71.1643 99.2362 69.7622 99.5787 68.2257 99.6854ZM67.8392 94.5083C68.4357 94.4669 68.9795 94.3202 69.4706 94.0682C69.9798 93.8149 70.4104 93.4762 70.7624 93.0522C71.1312 92.6088 71.404 92.0904 71.5808 91.4969C71.7563 90.8853 71.8183 90.2089 71.7669 89.4678C71.7155 88.7267 71.5612 88.0744 71.3042 87.511C71.0458 86.9295 70.704 86.4538 70.2788 86.0837C69.8703 85.6943 69.3964 85.4093 68.8572 85.2287C68.336 85.047 67.7771 84.9768 67.1806 85.0182C66.584 85.0596 66.0312 85.2069 65.522 85.4602C65.0309 85.7122 64.601 86.06 64.2322 86.5033C63.8801 86.9273 63.6164 87.4451 63.4409 88.0567C63.2641 88.6502 63.2014 89.3175 63.2529 90.0587C63.3043 90.7998 63.4592 91.4611 63.7175 92.0426C63.9746 92.606 64.3073 93.0824 64.7158 93.4718C65.1411 93.8419 65.6143 94.1178 66.1355 94.2996C66.6748 94.4802 67.2427 94.5497 67.8392 94.5083ZM81.2014 98.3489L79.8841 79.3686L89.0218 78.7344C90.7933 78.6115 92.3409 78.7947 93.6644 79.2841C95.0061 79.7722 96.0671 80.5341 96.8473 81.5697C97.6263 82.5873 98.0666 83.8282 98.1682 85.2924C98.2699 86.7566 98.0052 88.0464 97.3742 89.1619C96.7432 90.2773 95.7977 91.1785 94.5376 91.8653C93.2943 92.5328 91.7869 92.9281 90.0154 93.051L84.4298 93.4387L87.0868 90.5025L87.6005 97.9048L81.2014 98.3489ZM87.1357 91.2075L84.0873 88.5038L89.2662 88.1444C90.152 88.0829 90.7889 87.8389 91.1771 87.4123C91.5833 86.9846 91.7626 86.4272 91.7149 85.7403C91.6672 85.0534 91.4127 84.5261 90.9513 84.1586C90.5079 83.7897 89.8433 83.6361 88.9576 83.6975L83.7787 84.057L86.4244 80.9581L87.1357 91.2075ZM109.248 89.1007L107.215 77.4718L114.536 76.9637L114.129 88.762L109.248 89.1007ZM112.212 96.4693C111.163 96.542 110.283 96.2853 109.57 95.699C108.856 95.0947 108.468 94.3496 108.407 93.4639C108.344 92.56 108.626 91.7776 109.252 91.1166C109.878 90.4556 110.715 90.0887 111.764 90.0159C112.83 89.9419 113.71 90.1896 114.404 90.7591C115.115 91.3273 115.502 92.0633 115.565 92.9671C115.626 93.8528 115.345 94.6443 114.722 95.3415C114.115 96.0193 113.278 96.3952 112.212 96.4693ZM117.774 88.509L115.741 76.8801L123.062 76.372L122.655 88.1702L117.774 88.509ZM120.738 95.8775C119.689 95.9503 118.809 95.6935 118.096 95.1073C117.382 94.5029 116.994 93.7579 116.933 92.8721C116.87 91.9683 117.152 91.1859 117.778 90.5249C118.404 89.8639 119.242 89.497 120.29 89.4242C121.357 89.3502 122.236 89.5979 122.93 90.1673C123.641 90.7355 124.028 91.4715 124.091 92.3754C124.153 93.2611 123.872 94.0526 123.248 94.7497C122.641 95.4276 121.804 95.8035 120.738 95.8775ZM126.301 87.9172L124.268 76.2883L131.589 75.7803L131.181 87.5785L126.301 87.9172ZM129.264 95.2858C128.216 95.3585 127.335 95.1018 126.622 94.5155C125.908 93.9112 125.521 93.1662 125.459 92.2804C125.397 91.3766 125.678 90.5942 126.304 89.9331C126.931 89.2721 127.768 88.9052 128.816 88.8325C129.883 88.7585 130.763 89.0062 131.456 89.5756C132.168 90.1438 132.555 90.8798 132.618 91.7836C132.679 92.6694 132.398 93.4608 131.774 94.158C131.167 94.8358 130.331 95.2118 129.264 95.2858Z" fill="white"/>
</svg>
