<svg width="19" height="17" viewBox="0 0 19 17" fill="none" xmlns="http://www.w3.org/2000/svg">
<path d="M10.0998 0.419922C8.22367 0.423822 6.40857 1.08692 4.97187 2.29342C3.53507 3.49982 2.56807 5.17282 2.23967 7.01992H0.509766L2.99977 9.49992L5.43977 7.06002H3.43977C3.76927 5.47132 4.64897 4.04992 5.92367 3.04622C7.19847 2.04242 8.78656 1.52082 10.4082 1.57312C12.0298 1.62542 13.581 2.24832 14.7885 3.33212C15.9959 4.41582 16.7821 5.89102 17.0086 7.49762C17.2351 9.10422 16.8874 10.7391 16.0267 12.1145C15.166 13.4899 13.8476 14.5174 12.3036 15.016C10.7597 15.5147 9.08927 15.4525 7.58667 14.8404C6.08407 14.2282 4.84567 13.1055 4.08977 11.6699C4.09517 11.6101 4.09517 11.5498 4.08977 11.4899C4.11227 11.3056 4.06067 11.1198 3.94627 10.9735C3.83187 10.8273 3.66407 10.7324 3.47977 10.7099C3.29537 10.6873 3.10967 10.739 2.96337 10.8534C2.81707 10.9678 2.72227 11.1355 2.69977 11.3198C2.69027 11.366 2.69027 11.4137 2.69977 11.4599C2.69947 11.5896 2.73477 11.7168 2.80177 11.8279C2.86877 11.939 2.96487 12.0296 3.07967 12.0899C3.73017 13.3541 4.70577 14.4222 5.90607 15.1841C7.10637 15.946 8.48807 16.3743 9.90886 16.4248C11.3297 16.4754 12.7384 16.1464 13.9898 15.4717C15.2412 14.797 16.2903 13.8011 17.0289 12.5863C17.7676 11.3716 18.1692 9.98192 18.1924 8.56032C18.2155 7.13882 17.8595 5.73682 17.1608 4.49862C16.4622 3.26032 15.4462 2.23062 14.2174 1.51552C12.9886 0.800422 11.5915 0.425722 10.1698 0.430022L10.0998 0.419922Z" fill="#243980"/>
<path d="M10.4498 9.56992C11.085 9.56992 11.5998 9.05522 11.5998 8.42002C11.5998 7.78492 11.085 7.27002 10.4498 7.27002C9.8147 7.27002 9.2998 7.78492 9.2998 8.42002C9.2998 9.05522 9.8147 9.56992 10.4498 9.56992Z" fill="#243980"/>
</svg>
