<svg width="15" height="15" viewBox="0 0 15 15" fill="none" xmlns="http://www.w3.org/2000/svg">
<path d="M7.09004 0.149902L0.290039 4.9799H14.41L7.09004 0.149902Z" fill="#243980"/>
<path d="M2.61996 5.81982H2.36996C1.86736 5.81982 1.45996 6.22732 1.45996 6.72992V11.1099C1.45996 11.6125 1.86736 12.0199 2.36996 12.0199H2.61996C3.12246 12.0199 3.52996 11.6125 3.52996 11.1099V6.72992C3.52996 6.22732 3.12246 5.81982 2.61996 5.81982Z" fill="#243980"/>
<path d="M14.41 14.4002V12.6802H0.290039V14.4002H14.41Z" fill="#243980"/>
<path d="M7.47934 5.81982H7.22934C6.72674 5.81982 6.31934 6.22732 6.31934 6.72992V11.1099C6.31934 11.6125 6.72674 12.0199 7.22934 12.0199H7.47934C7.98194 12.0199 8.38934 11.6125 8.38934 11.1099V6.72992C8.38934 6.22732 7.98194 5.81982 7.47934 5.81982Z" fill="#243980"/>
<path d="M12.0594 5.81982H11.8094C11.3068 5.81982 10.8994 6.22732 10.8994 6.72992V11.1099C10.8994 11.6125 11.3068 12.0199 11.8094 12.0199H12.0594C12.562 12.0199 12.9694 11.6125 12.9694 11.1099V6.72992C12.9694 6.22732 12.562 5.81982 12.0594 5.81982Z" fill="#243980"/>
</svg>
