<svg width="88" height="25" viewBox="0 0 88 25" fill="none" xmlns="http://www.w3.org/2000/svg">
<path d="M82.53 0H5.16C2.31021 0 0 2.31037 0 5.16016V19.73C0 22.5798 2.31021 24.8901 5.16 24.8901H82.53C85.3798 24.8901 87.69 22.5798 87.69 19.73V5.16016C87.69 2.31037 85.3798 0 82.53 0Z" fill="#010101"/>
<path d="M22.11 5.23994C22.5014 5.19002 22.8953 5.16347 23.2899 5.16011C23.9096 5.11317 24.5241 5.30255 25.0099 5.69014C25.1875 5.8514 25.328 6.04939 25.4213 6.27046C25.5145 6.49153 25.5584 6.73038 25.5499 6.97016C25.553 7.49689 25.3482 8.00347 24.98 8.38008C24.4542 8.79904 23.7907 9.00603 23.12 8.96016C22.7869 8.97728 22.4531 8.97728 22.12 8.96016L22.11 5.23994ZM22.61 8.53999C22.8065 8.55144 23.0035 8.55144 23.2 8.53999C24.43 8.53999 25.0199 7.89016 25.0199 6.97016C25.0199 6.05016 24.4599 5.53999 23.2999 5.53999C23.0685 5.53801 22.8376 5.55816 22.61 5.60005V8.53999Z" fill="white"/>
<path d="M26.71 5.19019V8.93018H26.21V5.19019H26.71Z" fill="white"/>
<path d="M27.5599 8.30995C27.8614 8.49182 28.2079 8.58539 28.5599 8.57997C29.0799 8.57997 29.3899 8.32008 29.3899 7.94008C29.3899 7.56008 29.19 7.40011 28.62 7.22011C27.9 7.00011 27.5299 6.69004 27.5299 6.15004C27.5299 5.61004 28.0499 5.15004 28.8199 5.15004C29.1373 5.13943 29.4528 5.20451 29.74 5.33998L29.6 5.7499C29.3541 5.6178 29.0791 5.54911 28.7999 5.54995C28.2399 5.54995 28.0399 5.87001 28.0399 6.12001C28.0399 6.37001 28.28 6.63996 28.85 6.81996C29.42 6.99996 29.85 7.34007 29.85 7.93007C29.85 8.52007 29.44 9.00991 28.46 9.00991C28.0884 9.02016 27.7213 8.92664 27.3999 8.73989L27.5599 8.30995Z" fill="white"/>
<path d="M30.58 5.23996C30.9108 5.18819 31.2451 5.16161 31.58 5.16013C31.9791 5.13328 32.3752 5.24651 32.7 5.48019C32.8118 5.57829 32.9004 5.69997 32.9592 5.83664C33.018 5.97331 33.0456 6.12131 33.0399 6.26999C33.047 6.4191 33.0232 6.56807 32.9698 6.70749C32.9165 6.8469 32.8348 6.97379 32.73 7.08005C32.3892 7.37193 31.9478 7.51897 31.5 7.48996C31.3483 7.496 31.1966 7.47934 31.0499 7.44015V8.93014H30.5399L30.58 5.23996ZM31.09 7.04001C31.2441 7.07519 31.4018 7.09203 31.5599 7.09006C32.1999 7.09006 32.5599 6.80001 32.5599 6.29001C32.5599 5.78001 32.1399 5.55002 31.5599 5.55002C31.3835 5.53803 31.2064 5.53803 31.0299 5.55002L31.09 7.04001Z" fill="white"/>
<path d="M37.3798 7.01994C37.3992 7.28755 37.3608 7.55636 37.2672 7.80778C37.1735 8.05921 37.0268 8.2875 36.8371 8.47722C36.6474 8.66694 36.419 8.81348 36.1676 8.90715C35.9161 9.00082 35.6474 9.03929 35.3798 9.01994C35.1299 9.02971 34.8806 8.98803 34.6475 8.89714C34.4145 8.80625 34.2027 8.66828 34.0253 8.49187C33.848 8.31545 33.7089 8.10432 33.6168 7.87175C33.5246 7.63918 33.4815 7.39007 33.4899 7.14006C33.4746 6.8785 33.5138 6.61662 33.6051 6.37102C33.6963 6.12541 33.8375 5.90137 34.02 5.7133C34.2024 5.52523 34.422 5.37719 34.6647 5.27849C34.9075 5.17979 35.168 5.13268 35.4299 5.14006C35.6851 5.12004 35.9416 5.15446 36.1826 5.24089C36.4235 5.32732 36.6434 5.46385 36.8277 5.64152C37.012 5.8192 37.1565 6.03377 37.2517 6.27141C37.3468 6.50904 37.3905 6.76418 37.3798 7.01994ZM34.0699 7.09001C34.1007 7.35792 34.2082 7.61125 34.3796 7.8195C34.5509 8.02775 34.7788 8.18198 35.0357 8.26384C35.2927 8.3457 35.5678 8.35169 35.8281 8.28093C36.0883 8.21017 36.3225 8.06586 36.5026 7.86516C36.6828 7.66445 36.801 7.41592 36.8433 7.14958C36.8856 6.88324 36.8501 6.61032 36.741 6.36369C36.632 6.11706 36.454 5.90709 36.2285 5.7592C36.003 5.61131 35.7396 5.53172 35.4699 5.52995C35.2704 5.52991 35.073 5.57235 34.8911 5.65422C34.7091 5.73609 34.5466 5.85571 34.4143 6.00505C34.2819 6.15439 34.1829 6.32993 34.1235 6.52043C34.0641 6.71093 34.0458 6.91195 34.0699 7.11003V7.09001Z" fill="white"/>
<path d="M38.0399 8.93018V5.19019H38.62L39.98 7.13013C40.2487 7.50719 40.4925 7.90129 40.71 8.31006C40.71 7.84006 40.71 7.39009 40.71 6.84009V5.19019H41.1899V8.93018H40.6699L39.3199 7C39.0421 6.60018 38.7851 6.18631 38.5499 5.76001C38.5499 6.22001 38.5499 6.66021 38.5499 7.22021V8.92017L38.0399 8.93018Z" fill="white"/>
<path d="M42.5499 5.19019V8.93018H42.0399V5.19019H42.5499Z" fill="white"/>
<path d="M43.4399 5.24006C43.7705 5.18593 44.105 5.15934 44.4399 5.16022C44.8248 5.12379 45.2103 5.22285 45.5299 5.44025C45.639 5.5113 45.7277 5.60944 45.7874 5.72516C45.847 5.84088 45.8755 5.9701 45.87 6.10016C45.8621 6.28797 45.795 6.46848 45.6782 6.61579C45.5615 6.76309 45.401 6.86971 45.22 6.92023C45.3918 6.96347 45.5491 7.0516 45.6757 7.1756C45.8023 7.2996 45.8936 7.45488 45.9404 7.6258C45.9872 7.79672 45.9878 7.97706 45.942 8.14826C45.8962 8.31945 45.8058 8.47541 45.6799 8.60016C45.2723 8.87703 44.78 9.00109 44.2899 8.95026C44.0168 8.965 43.7431 8.965 43.47 8.95026L43.4399 5.24006ZM43.95 6.77008H44.47C45.03 6.77008 45.3199 6.50021 45.3199 6.15021C45.3199 5.80021 44.9399 5.5401 44.4399 5.5401C44.2771 5.5216 44.1128 5.5216 43.95 5.5401V6.77008ZM43.95 8.55011C44.103 8.56325 44.2569 8.56325 44.4099 8.55011C44.9399 8.55011 45.4099 8.39014 45.4099 7.83014C45.4099 7.27014 44.9499 7.12018 44.4099 7.12018H43.9399L43.95 8.55011Z" fill="white"/>
<path d="M46.6899 5.19019H47.1899V8.51001H48.97V8.93018H46.6899V5.19019Z" fill="white"/>
<path d="M51.6599 7.19019H50.0399V8.52002H51.85V8.93018H49.5399V5.19019H51.7599V5.61011H50.0399V6.77002H51.6599V7.19019Z" fill="white"/>
<path d="M53.74 8.31004C54.0415 8.49191 54.388 8.58548 54.74 8.58006C55.27 8.58006 55.58 8.32017 55.58 7.94017C55.58 7.56017 55.3699 7.4002 54.7999 7.2202C54.2299 7.0402 53.72 6.69013 53.72 6.15013C53.72 5.61013 54.23 5.15013 55 5.15013C55.3208 5.13792 55.6397 5.20303 55.9299 5.34007L55.7799 5.74998C55.5371 5.6191 55.2658 5.55044 54.99 5.55003C54.43 5.55003 54.23 5.8701 54.23 6.1201C54.23 6.3701 54.4599 6.64005 55.0299 6.82005C55.5999 7.00005 56.09 7.34016 56.09 7.93016C56.09 8.52016 55.6799 9.00999 54.6899 9.00999C54.3188 9.01667 53.9526 8.92339 53.6299 8.73997L53.74 8.31004Z" fill="white"/>
<path d="M57.2699 5.19019V7.31006C57.2699 8.20006 57.6899 8.59009 58.2699 8.59009C58.8499 8.59009 59.2699 8.19006 59.2699 7.31006V5.19019H59.7699V7.29004C59.8035 7.5098 59.7872 7.73443 59.7222 7.94702C59.6571 8.15961 59.5451 8.35474 59.3943 8.51807C59.2435 8.68139 59.0577 8.80867 58.851 8.89038C58.6442 8.9721 58.4217 9.00607 58.2 8.98999C57.37 8.98999 56.73 8.54005 56.73 7.30005V5.19019H57.2699Z" fill="white"/>
<path d="M60.71 5.24002C61.0411 5.19088 61.3752 5.16432 61.71 5.16018C62.1228 5.12091 62.5357 5.23487 62.87 5.48025C62.9707 5.56849 63.0507 5.67783 63.1042 5.80056C63.1578 5.92329 63.1837 6.05635 63.1799 6.19021C63.1744 6.40573 63.0994 6.61359 62.9661 6.78298C62.8327 6.95238 62.6481 7.07417 62.4399 7.13015C62.5849 7.19812 62.7114 7.29975 62.8088 7.42678C62.9063 7.55382 62.9719 7.70251 63 7.86013C63.0806 8.21646 63.184 8.56724 63.3099 8.91018H62.7899C62.6759 8.62221 62.5888 8.32412 62.5299 8.02005C62.4099 7.51005 62.19 7.31006 61.73 7.29006H61.1799V8.91018H60.6799L60.71 5.24002ZM61.21 6.94021H61.8099C62.3599 6.94021 62.7 6.66002 62.7 6.24002C62.7 5.82002 62.2999 5.55007 61.7699 5.55007C61.5841 5.52531 61.3958 5.52531 61.21 5.55007V6.94021Z" fill="white"/>
<path d="M28.8799 18.5401C28.054 18.8154 27.1904 18.9606 26.32 18.9703C25.1921 19.0591 24.0747 18.6998 23.21 17.9703C22.8473 17.6044 22.5635 17.1679 22.376 16.6881C22.1885 16.2082 22.1014 15.6951 22.12 15.1803C22.12 12.6303 23.99 11.1803 26.5 11.1803C27.2278 11.1579 27.9523 11.2837 28.6299 11.5501L28.2699 12.9303C27.7026 12.6981 27.0926 12.589 26.48 12.6102C25.817 12.5943 25.1747 12.8423 24.6946 13.2999C24.2145 13.7575 23.9358 14.3871 23.9199 15.0501C23.904 15.7132 24.1522 16.3554 24.6098 16.8355C25.0673 17.3156 25.697 17.5943 26.36 17.6102C26.6475 17.6214 26.9348 17.5841 27.21 17.5001V15.8902H26.0199V14.5401H28.8799V18.5401Z" fill="white"/>
<path d="M35.7299 16.1101C35.762 16.5062 35.7089 16.9045 35.5739 17.2783C35.439 17.6521 35.2255 17.9928 34.9478 18.2771C34.6702 18.5614 34.3347 18.7828 33.9642 18.9265C33.5937 19.0702 33.1967 19.1328 32.7999 19.1101C32.4182 19.1317 32.0362 19.0727 31.6789 18.9367C31.3216 18.8008 30.997 18.5909 30.7262 18.321C30.4554 18.0511 30.2445 17.7274 30.1073 17.3706C29.9701 17.0137 29.9096 16.6317 29.9299 16.25C29.8966 15.8476 29.9513 15.4428 30.0903 15.0637C30.2293 14.6846 30.4492 14.3404 30.7347 14.0549C31.0202 13.7694 31.3645 13.5493 31.7436 13.4104C32.1227 13.2714 32.5275 13.2166 32.9299 13.25C33.3067 13.2353 33.6823 13.2998 34.0327 13.4392C34.383 13.5785 34.7003 13.7899 34.9641 14.0593C35.2278 14.3287 35.4323 14.6504 35.5642 15.0036C35.6961 15.3569 35.7526 15.7337 35.7299 16.1101ZM31.7299 16.1701C31.7299 17.1201 32.13 17.8401 32.87 17.8401C33.61 17.8401 33.9699 17.1601 33.9699 16.1601C33.9699 15.3401 33.65 14.49 32.87 14.49C32.09 14.49 31.7099 15.2901 31.7099 16.1101L31.7299 16.1701Z" fill="white"/>
<path d="M42.3299 16.1101C42.362 16.5062 42.3088 16.9045 42.1739 17.2783C42.039 17.6521 41.8255 17.9928 41.5478 18.2771C41.2701 18.5614 40.9347 18.7828 40.5642 18.9265C40.1937 19.0702 39.7966 19.1328 39.3999 19.1101C39.0177 19.1316 38.6354 19.0726 38.2776 18.9367C37.9197 18.8009 37.5945 18.5912 37.323 18.3215C37.0514 18.0518 36.8395 17.7279 36.7011 17.3711C36.5628 17.0142 36.501 16.6322 36.5199 16.25C36.4865 15.8476 36.5413 15.4428 36.6803 15.0637C36.8192 14.6846 37.0392 14.3404 37.3247 14.0549C37.6102 13.7694 37.9545 13.5493 38.3336 13.4104C38.7127 13.2714 39.1175 13.2166 39.5199 13.25C39.8975 13.2339 40.2743 13.2973 40.6258 13.436C40.9774 13.5747 41.2959 13.7858 41.5608 14.0554C41.8256 14.325 42.0309 14.647 42.1634 15.0009C42.2959 15.3549 42.3527 15.7328 42.3299 16.1101ZM38.3299 16.1701C38.3299 17.1201 38.7299 17.8401 39.4699 17.8401C40.2099 17.8401 40.5699 17.1601 40.5699 16.1601C40.5699 15.3401 40.2499 14.49 39.4699 14.49C38.6899 14.49 38.3099 15.2901 38.3099 16.1101L38.3299 16.1701Z" fill="white"/>
<path d="M48.75 13.3302C48.75 13.6902 48.75 14.1601 48.75 14.9901V18.0902C48.7969 18.5427 48.7462 19.0002 48.6013 19.4315C48.4564 19.8628 48.2206 20.2578 47.9099 20.5902C47.2631 21.0819 46.4605 21.3233 45.6499 21.2701C44.9598 21.285 44.2756 21.1414 43.6499 20.8502L44 19.5401C44.4946 19.8075 45.0477 19.9485 45.6099 19.9503C45.8055 19.9694 46.0028 19.9445 46.1876 19.8776C46.3723 19.8106 46.5398 19.7032 46.6778 19.5633C46.8158 19.4234 46.9208 19.2546 46.9852 19.069C47.0496 18.8833 47.0717 18.6854 47.0499 18.4901V18.1102C46.8774 18.3433 46.6507 18.5309 46.3892 18.6564C46.1278 18.7818 45.8396 18.8414 45.5499 18.8302C45.2127 18.8197 44.8813 18.7398 44.5765 18.5953C44.2717 18.4508 43.9998 18.2448 43.7783 17.9903C43.5567 17.7359 43.3902 17.4386 43.2889 17.1168C43.1876 16.795 43.1539 16.4557 43.1899 16.1202C43.1528 15.7596 43.1897 15.3952 43.2985 15.0494C43.4073 14.7036 43.5857 14.3836 43.8226 14.1092C44.0595 13.8348 44.3501 13.6118 44.6763 13.4537C45.0026 13.2957 45.3577 13.2061 45.7199 13.1903C46.0212 13.1713 46.3219 13.2347 46.5897 13.3739C46.8575 13.5131 47.0824 13.7229 47.2399 13.9803L47.2999 13.3102L48.75 13.3302ZM46.9699 15.6002C46.9802 15.4938 46.9802 15.3866 46.9699 15.2801C46.9298 15.064 46.8143 14.869 46.644 14.7298C46.4737 14.5907 46.2597 14.5164 46.0399 14.5201C45.4099 14.5201 44.9099 15.0902 44.9099 16.1002C44.9099 16.9302 45.3199 17.5802 46.0399 17.5802C46.2476 17.5804 46.4496 17.512 46.6142 17.3854C46.7788 17.2587 46.8969 17.0811 46.9499 16.8802C46.9701 16.7276 46.9701 16.5729 46.9499 16.4203L46.9699 15.6002Z" fill="white"/>
<path d="M50.09 10.8301H51.83V18.9001H50.09V10.8301Z" fill="white"/>
<path d="M54.5499 16.6702C54.6099 17.3902 55.3199 17.7303 56.1199 17.7303C56.64 17.7391 57.1575 17.6577 57.6499 17.49L57.8898 18.6602C57.2526 18.9078 56.5735 19.0299 55.8898 19.0201C55.499 19.0679 55.1026 19.0291 54.7285 18.9063C54.3544 18.7835 54.012 18.5796 53.7255 18.3094C53.4391 18.0392 53.2158 17.7094 53.0714 17.3431C52.9269 16.9768 52.8649 16.5832 52.8898 16.1902C52.8623 15.8052 52.9146 15.4186 53.0435 15.0547C53.1725 14.6909 53.3754 14.3577 53.6392 14.076C53.9031 13.7943 54.2224 13.5702 54.577 13.4178C54.9316 13.2653 55.3139 13.1879 55.6999 13.1902C57.4999 13.1902 58.1799 14.5903 58.1799 15.9703C58.183 16.1984 58.163 16.4262 58.1199 16.6502L54.5499 16.6702ZM56.5499 15.49C56.5685 15.3482 56.5565 15.2042 56.5146 15.0674C56.4727 14.9307 56.402 14.8044 56.3072 14.6973C56.2124 14.5902 56.0958 14.5048 55.9652 14.4466C55.8345 14.3884 55.6929 14.3589 55.5499 14.3602C55.2624 14.3802 54.9929 14.5073 54.7948 14.7166C54.5966 14.9259 54.4843 15.2019 54.4799 15.49H56.5499Z" fill="white"/>
<path d="M61.59 11.3401C62.3642 11.2222 63.1469 11.1688 63.9299 11.1802C64.7564 11.1141 65.5809 11.3289 66.2699 11.79C66.5313 12.0057 66.7401 12.2782 66.8805 12.5867C67.0208 12.8951 67.0891 13.2313 67.08 13.5701C67.0963 13.9039 67.0425 14.2375 66.9219 14.5493C66.8013 14.8611 66.6167 15.1442 66.3799 15.3801C65.6839 15.9584 64.7929 16.2483 63.8899 16.1902C63.6936 16.2076 63.4962 16.2076 63.2999 16.1902V18.9402H61.59V11.3401ZM63.2999 14.8101C63.4904 14.8511 63.6852 14.868 63.8799 14.8601C64.7999 14.8601 65.37 14.3901 65.37 13.6201C65.37 12.8501 64.8799 12.49 64.0099 12.49C63.7718 12.4851 63.5338 12.5052 63.2999 12.55V14.8101Z" fill="white"/>
<path d="M68.11 10.8301H69.84V18.9001H68.11V10.8301Z" fill="white"/>
<path d="M74.44 18.9L74.34 18.34C74.1428 18.5651 73.8974 18.743 73.6222 18.8607C73.3471 18.9784 73.0491 19.0328 72.7501 19.0199C72.5182 19.035 72.2857 19.0022 72.0671 18.9235C71.8485 18.8447 71.6485 18.7217 71.4795 18.5621C71.3106 18.4026 71.1764 18.21 71.0853 17.9962C70.9941 17.7825 70.9481 17.5523 70.95 17.32C70.95 15.87 72.24 15.1801 74.21 15.1901V15.11C74.21 14.82 74.05 14.4 73.21 14.4C72.6739 14.4076 72.1481 14.5484 71.68 14.81L71.36 13.7101C72.0308 13.3663 72.7764 13.1945 73.53 13.2101C73.8571 13.1645 74.1904 13.1947 74.504 13.2987C74.8175 13.4027 75.1029 13.5776 75.3379 13.8097C75.573 14.0418 75.7513 14.3249 75.8592 14.6371C75.9671 14.9493 76.0016 15.2823 75.96 15.61V17.5499C75.9526 18.0017 75.9827 18.4533 76.05 18.9H74.44ZM74.23 16.2699C73.32 16.2699 72.62 16.48 72.62 17.14C72.6138 17.2314 72.6275 17.3229 72.6602 17.4083C72.693 17.4938 72.7439 17.5711 72.8096 17.6349C72.8753 17.6987 72.954 17.7475 73.0405 17.7777C73.1269 17.8079 73.2189 17.8189 73.31 17.81C73.507 17.8113 73.6994 17.7502 73.8593 17.6351C74.0193 17.5201 74.1386 17.3573 74.2 17.1701C74.2151 17.0706 74.2151 16.9694 74.2 16.87L74.23 16.2699Z" fill="white"/>
<path d="M78.4399 13.3301L79.2699 16.0701C79.3699 16.3901 79.4699 16.8101 79.5499 17.0701C79.6299 16.7701 79.7199 16.3601 79.7999 16.0701L80.49 13.3301H82.33L81.0399 17C80.2399 19.2 79.7099 20.0901 79.0399 20.6401C78.579 21.0598 77.9987 21.3254 77.3799 21.4001L77.0099 19.9502C77.2731 19.8871 77.5258 19.786 77.7599 19.6501C78.0506 19.4833 78.2949 19.2461 78.47 18.9602C78.5255 18.8876 78.5601 18.8011 78.5699 18.7102C78.5683 18.6083 78.5409 18.5085 78.49 18.4202L76.49 13.3301H78.4399Z" fill="white"/>
<path d="M19.23 14.4502C19.3608 14.5256 19.4695 14.6341 19.545 14.7649C19.6206 14.8957 19.6603 15.044 19.6603 15.1951C19.6603 15.3461 19.6206 15.4945 19.545 15.6252C19.4695 15.756 19.3608 15.8647 19.23 15.9402L16.23 17.6602L13.7799 15.2002L16.23 12.74L19.23 14.4502Z" fill="#FDB515"/>
<path d="M16.23 12.7401L13.7799 15.2003L6.59998 8.00007C6.72829 7.87103 6.89416 7.78614 7.07385 7.75739C7.25355 7.72864 7.4378 7.75759 7.59998 7.84015L16.23 12.7401Z" fill="#45B75A"/>
<path d="M13.7799 15.2002L16.23 17.6602L7.6499 22.55C7.48975 22.6351 7.3068 22.6675 7.1272 22.6423C6.9476 22.6172 6.78054 22.5359 6.6499 22.4102L13.7799 15.2002Z" fill="#EF4637"/>
<path d="M6.37004 8.59009C6.36785 8.37114 6.45022 8.1597 6.60002 8L13.7799 15.2002L6.62004 22.4102C6.53985 22.3303 6.47632 22.2351 6.43339 22.1304C6.39046 22.0256 6.36899 21.9133 6.37004 21.8V8.59009Z" fill="#44B3E7"/>
</svg>
