<svg width="27" height="28" viewBox="0 0 27 28" fill="none" xmlns="http://www.w3.org/2000/svg">
<path fill-rule="evenodd" clip-rule="evenodd" d="M22.7799 4.39998C20.5277 2.10667 17.515 0.715519 14.3088 0.48812C11.1025 0.26072 7.92368 1.21288 5.37033 3.16537C2.81699 5.11785 1.06515 7.93612 0.444427 11.0899C-0.176296 14.2437 0.376879 17.5157 1.99988 20.2901L0.129883 27.1102L7.12988 25.2801C9.05962 26.3314 11.2224 26.8814 13.4199 26.88C16.0248 26.8809 18.5714 26.1096 20.7378 24.6632C22.9042 23.2167 24.5929 21.1603 25.5905 18.754C26.5882 16.3477 26.8498 13.6996 26.3424 11.1446C25.835 8.58964 24.5813 6.24242 22.7399 4.39998H22.7799ZM13.4599 24.66C11.4994 24.6602 9.57518 24.1316 7.88989 23.13L7.48987 22.9L3.34988 23.9801L4.44989 19.9801L4.18988 19.5601C3.16676 17.8997 2.60352 15.9968 2.55789 14.047C2.51227 12.0971 2.9859 10.1702 3.93024 8.46371C4.87458 6.75718 6.25566 5.33252 7.93198 4.33553C9.60829 3.33855 11.5195 2.80519 13.4699 2.79012C16.3786 2.79009 19.169 3.94212 21.2304 5.99422C23.2919 8.04632 24.4567 10.8314 24.4699 13.7401C24.4488 16.6453 23.2791 19.4241 21.2164 21.4701C19.1536 23.516 16.3652 24.6627 13.4599 24.66ZM19.4599 16.46C19.1299 16.3 17.5199 15.46 17.2099 15.39C16.8999 15.32 16.6899 15.2301 16.4699 15.5601C16.2499 15.8901 15.6199 16.6302 15.4699 16.8502C15.3199 17.0702 15.0899 17.09 14.7599 16.93C13.7898 16.5423 12.8934 15.9911 12.1099 15.3001C11.3915 14.6339 10.7749 13.8656 10.2799 13.0201C10.2445 12.9671 10.2201 12.9076 10.208 12.8451C10.196 12.7825 10.1964 12.7182 10.2095 12.6558C10.2225 12.5935 10.2478 12.5342 10.2839 12.4818C10.3201 12.4293 10.3663 12.3846 10.4199 12.3502C10.5699 12.2002 10.7499 11.9601 10.9199 11.7701C11.0544 11.6026 11.1654 11.4175 11.2499 11.2201C11.2972 11.1307 11.3219 11.0311 11.3219 10.93C11.3219 10.8289 11.2972 10.7293 11.2499 10.64C11.1699 10.48 10.5099 8.86003 10.2499 8.20003C9.98988 7.54003 9.71989 7.64997 9.50989 7.62997H8.87988C8.71368 7.63586 8.55052 7.67632 8.40076 7.74862C8.25099 7.82092 8.11788 7.92366 8.00989 8.05013C7.63344 8.39858 7.33533 8.82312 7.13535 9.29549C6.93536 9.76787 6.83807 10.2773 6.84988 10.7901C6.95545 12.0316 7.42507 13.2143 8.19989 14.19C9.60363 16.3196 11.5415 18.0436 13.8199 19.19C14.6099 19.53 15.2199 19.73 15.6999 19.89C16.3708 20.0914 17.079 20.136 17.7699 20.0201C18.228 19.9252 18.6616 19.7368 19.0436 19.4666C19.4256 19.1965 19.7478 18.8504 19.9899 18.45C20.212 17.9619 20.2783 17.4171 20.1799 16.89C19.9999 16.71 19.7899 16.63 19.4599 16.46Z" fill="white"/>
</svg>
